<svg version="1.1" xmlns="http://www.w3.org/2000/svg" xmlns:xlink="http://www.w3.org/1999/xlink" width="63.13256" height="147.5591" viewBox="0,0,63.13256,147.5591"><g transform="translate(-208.63618,-32.31646)"><g data-paper-data="{&quot;isPaintingLayer&quot;:true}" stroke-width="1" stroke-linecap="butt" stroke-linejoin="miter" stroke-miterlimit="10" stroke-dasharray="" stroke-dashoffset="0" style="mix-blend-mode: normal"><g data-paper-data="{&quot;index&quot;:null}" stroke="none"><path d="M238.00491,164.54438c0.4,-0.07374 0.6,0.51617 0.8,0.66365c0.5,0.44243 0.5,1.40103 0.4,1.9172c-0.1,0.51617 -0.4,1.03234 -0.7,1.47477c-0.2,0.29495 -0.4,0.51617 -0.7,0.73738c-0.4,0.29495 -1.3,0.58991 -1.9,0.66365c-1.9,0.14748 -3.5,0.29495 -5.3,-0.07374c-2.2,-0.44243 -4.4,-0.58991 -6.6,-0.29495c-1.8,0.22122 -3.9,0.66365 -5.7,0.81112c-2.1,0.22122 -4.1,0.07374 -6.2,-0.22122c-1.4,-0.22122 -2.7,-1.40103 -3.2,-2.35963c-0.2,-0.36869 0.1,-0.9586 0.3,-1.32729c0.3,-0.66365 1,-0.66365 1.8,-0.66365c2.3,0 5,-0.07374 7.1,-0.73738c0.8,-0.29495 1.7,-0.66365 2.4,-0.9586c0.7,-0.29495 0.8,-0.51617 1.6,-0.66365c0.2,0 -1.9,-1.10608 -1.7,-1.03234c-1,-0.66365 -0.3,0 0.1,-0.9586c0.1,-0.22122 0.6,-0.22122 0.8,-0.29495c0.3,-0.14748 0.4,-0.14748 0.8,-0.22122c0.8,-0.14748 1.6,-0.66365 1.7,0.14748c0,0.51617 -0.5,1.10608 -0.4,1.69598c0.1,0.51617 1.3,1.17981 1.9,1.32729c1.7,0.44243 3.3,1.17981 5.1,1.25355c1.3,0.07374 2.9,0.36869 4.1,0.14748c0.5,-0.07374 1.5,-0.14748 2,-0.29495c0.3,-0.07374 0.6,-0.29495 1.1,-0.44243" fill="#2fa64a" fill-rule="evenodd"/><path d="M238.00491,168.96868c0,0.07374 -0.4,0.36869 -0.4,0.44243c-0.4,0.29495 -0.2,0.07374 -0.7,0.36869c-0.8,0.51617 -1.4,0.29495 -2.4,0.29495c-1.7,-0.07374 -3.1,0 -4.7,-0.29495c-1.4,-0.22122 -3,-0.29495 -4.4,-0.22122c-1,0.07374 -1.9,0.14748 -2.9,0.22122c-2.1,0.22122 -4.3,0.81112 -6.5,0.66365c-1.9,-0.14748 -4.6,0.14748 -5.9,-1.03234c-1.5,-1.40103 -1.5,-2.65458 -0.1,-3.4657c0.3,0.22122 0.3,2.21215 3.6,3.02327c2.1,0.51617 4,0.44243 6.2,0.29495c1.3,-0.07374 2.8,-0.29495 4.1,-0.36869c1.1,-0.14748 2.2,-0.36869 3.3,-0.44243c1,-0.07374 2,-0.14748 3.1,0.07374c0.8,0.14748 1.5,0 2.4,0.14748c1,0.14748 2.1,0 3.1,0.07374c0.4,0.07374 2.5,-0.81112 2.7,-0.51617" fill="#a9d7aa" fill-rule="evenodd"/><path d="M238.50491,164.54438c0.8,0.88486 1.3,1.76972 1.2,2.80206c-0.1,1.17981 -1.6,2.13841 -2.8,2.72832c-0.2,0.07374 -0.7,-0.07374 -0.4,-0.22122c1.2,-0.58991 2.3,-1.32729 2.6,-2.43337c0.4,-1.03234 -0.4,-2.06467 -1.1,-2.8758c-0.2,-0.14748 0.4,-0.14748 0.5,0zM236.70491,170.07476c-1.5,0.07374 -3,0.14748 -4.5,0.07374c-0.9,-0.07374 -1.8,-0.22122 -2.7,-0.36869c-1.7,-0.29495 -3.3,-0.29495 -5,-0.14748c-2.1,0.22122 -4.1,0.66365 -6.2,0.88486c-1.9,0.22122 -3.7,0 -5.5,-0.22122c-0.3,0 -0.4,-0.29495 -0.1,-0.22122c2.3,0.22122 4.4,0.36869 6.7,0c1.9,-0.29495 3.9,-0.66365 5.8,-0.81112c2.1,-0.14748 3.9,0.22122 5.9,0.51617c1.8,0.22122 3.6,0.07374 5.4,0c0.2,0.07374 0.6,0.29495 0.2,0.29495zM222.30491,163.65952c-1.4,0.51617 -2.7,1.25355 -4.2,1.69598c-1.9,0.58991 -3.7,0.58991 -5.7,0.66365c-0.9,0 -1.8,0 -2.6,0.36869c-1.1,0.44243 -0.6,1.62224 -0.2,2.28589c1.3,1.76972 4.2,1.76972 6.6,1.69598c0.2,0 0.6,0.29495 0.2,0.29495c-2,0.07374 -3.9,0.07374 -5.7,-0.66365c-1.5,-0.58991 -2.6,-2.13841 -1.8,-3.31823c0.7,-1.10608 3.6,-0.81112 4.8,-0.81112c3.2,0 5.4,-1.25355 8.1,-2.28589c0.2,-0.22122 0.7,0 0.5,0.07374zM210.50491,166.01915c0.3,3.98187 7.4,3.24449 11,2.8758c2.1,-0.22122 4.3,-0.44243 6.4,-0.51617c1.8,-0.07374 3.6,0 5.4,0.14748c1.8,0.14748 3.7,0.14748 5.2,-0.66365c0.2,-0.07374 0.7,0.07374 0.4,0.22122c-1.1,0.58991 -2.5,0.81112 -3.8,0.81112c-2.2,0 -4.3,-0.29495 -6.6,-0.22122c-2.7,0.07374 -5.4,0.44243 -8.1,0.66365c-3.8,0.29495 -10.3,0.51617 -10.6,-3.31823c0.1,-0.22122 0.7,-0.14748 0.7,0zM223.90491,164.61812c-0.7,-0.73738 -1.8,-1.10608 -2.7,-1.62224c-0.3,-0.14748 -1.3,-0.66365 -1.3,-0.9586c-0.1,-0.9586 2.7,-1.62224 3.7,-1.47477c0.2,0.07374 0.2,0.14748 -0.1,0.14748c-0.8,-0.14748 -1.9,0.36869 -2.6,0.66365c-1,0.51617 -0.4,0.88486 0.2,1.32729c1,0.66365 2.4,1.03234 3.2,1.9172c0.1,0.14748 -0.3,0.07374 -0.4,0zM220.00491,161.81606c1.6,-0.36869 3.1,0.81112 4,1.62224c0.1,0.07374 -0.2,0 -0.2,0c-0.8,-0.66365 -2.1,-1.84346 -3.5,-1.54851c-0.1,0 -0.4,-0.07374 -0.3,-0.07374zM224.30491,164.61812c0.2,0.14748 0.5,0 0.6,-0.07374c0.2,-0.07374 0.3,-0.22122 0.3,-0.44243c0,-0.07374 0.4,0 0.4,0.07374c-0.1,0.51617 -1.2,0.88486 -1.8,0.44243c0,-0.07374 0.4,-0.07374 0.5,0zM221.60491,164.17569c0.6,0.36869 1.3,0.73738 1.4,1.32729c0.1,0.22122 -1,0.07374 -1.1,-0.14748c-0.2,-0.51617 -0.8,-0.88486 -1.4,-1.25355c-0.2,-0.14748 0.2,-0.14748 0.3,-0.14748c0.3,0 0.6,0.07374 0.8,0.22122zM220.10491,164.69186c0.5,0.36869 1,0.73738 1.1,1.25355c0.1,0.36869 -1,0.22122 -1.1,-0.07374c-0.1,-0.44243 -0.5,-0.73738 -0.9,-1.03234c-0.2,-0.14748 -0.1,-0.29495 0.1,-0.29495c0.3,-0.07374 0.7,0 0.8,0.14748zM218.70491,165.28176c0.4,0.22122 0.9,0.51617 0.9,0.9586c0,0.29495 -1.1,0.14748 -1.1,-0.07374c0,-0.36869 -0.4,-0.51617 -0.7,-0.73738c-0.2,-0.07374 -0.1,-0.22122 0.1,-0.29495c0.3,-0.07374 0.6,0 0.8,0.14748z" fill="#1d241c" fill-rule="nonzero"/></g><g data-paper-data="{&quot;index&quot;:null}" stroke="none"><path d="M267.70491,169.48485c0.8,0 1.4,0 1.6,0.36869c0.3,0.44243 0.1,1.32729 0.1,1.84346c0,0.66365 0.1,1.17981 -0.3,1.76972c-0.4,0.58991 -1.8,0.88486 -2.6,1.17981c-1.6,0.66365 -3,0.81112 -4.5,1.62224c-1.4,0.73738 -2.9,1.47477 -3.9,2.43337c-1.2,1.25355 -4.2,0.73738 -6.1,0.66365c-0.9,0 -1.7,-0.29495 -2.6,-0.36869c-0.9,-0.07374 -1.7,-0.36869 -2.5,-0.66365c-0.7,-0.22122 -1.4,-0.51617 -2.1,-0.81112c-0.6,-0.22122 -1.1,-0.58991 -1.5,-0.9586c-0.9,-0.73738 -1.6,-1.62224 -0.1,-2.06467c0,-0.44243 0.9,-0.66365 1.4,-0.73738c0.5,-0.07374 1.6,-0.29495 2.1,-0.36869c1.1,-0.14748 0.6,-0.22122 1.5,-0.51617c0.7,-0.22122 1.2,-0.58991 1.7,-1.10608c0.5,-0.44243 1.1,-0.81112 1.5,-1.32729c0.2,-0.22122 0.7,-0.29495 0.9,-0.51617c0.3,-0.22122 0.8,-0.14748 0.9,-0.44243c0.1,-0.51617 0.5,-1.76972 1.2,-1.9172c1,-0.14748 2.1,-0.07374 3,0.07374c0.8,0.14748 2.1,0.36869 2.9,0.66365c0.5,0.14748 1,0.51617 1.5,0.66365c0,0.29495 -0.3,0.66365 -0.2,0.9586c1.3,0.07374 1.1,0.07374 2.4,0.22122c0.7,0.07374 2.3,-0.29495 3.1,-0.51617c0.3,0 0.3,-0.14748 0.7,-0.36869" fill="#2fa64a" fill-rule="evenodd"/><path d="M269.50491,173.09803c-0.5,0.36869 -0.2,0.81112 -0.9,1.17981c-0.5,0.22122 -1.6,0.58991 -2.2,0.73738c-1.4,0.44243 -3,1.03234 -4.4,1.54851c-0.5,0.22122 -0.8,0.36869 -1.2,0.58991c-0.4,0.29495 -0.7,0.66365 -1.2,0.9586c-0.4,0.22122 -0.9,0.44243 -1.2,0.66365c-0.4,0.29495 -0.4,0.51617 -1,0.73738c-2.1,0.66365 -5.4,0.29495 -7.5,-0.14748c-2.1,-0.44243 -5.3,-0.81112 -6.4,-2.28589c-0.5,-0.58991 -1.2,-1.10608 -0.5,-1.9172c0.6,-0.73738 1,-1.17981 2.2,-1.10608c0,0.07374 -0.2,0.29495 -0.2,0.36869c0.1,0.22122 -0.2,0.44243 0,0.73738c0.2,0.44243 0.9,0.58991 1.4,0.88486c0.9,0.44243 2.1,0.66365 3.2,0.9586c2.4,0.66365 5.4,0.88486 7.8,0.22122c2.2,-0.58991 3.9,-1.69598 6,-2.35963c1.9,-0.51617 4.1,-1.54851 6.1,-1.76972" fill="#a9d7aa" fill-rule="evenodd"/><path d="M253.40491,169.85354c-1.3,0.58991 -2.1,1.32729 -3.1,2.13841c-0.7,0.58991 -1.4,1.10608 -2.3,1.47477c-0.8,0.29495 -1.9,0.36869 -2.8,0.51617c-1.2,0.22122 -2,0.66365 -2.3,1.54851c-0.3,0.88486 0.8,1.47477 1.6,1.9172c2.4,1.25355 5.3,1.76972 8.2,1.99094c1.5,0.14748 3.1,0.14748 4.4,-0.44243c0.8,-0.29495 1.4,-0.9586 2,-1.47477c1.5,-1.17981 3.6,-1.84346 5.6,-2.50711c1.4,-0.51617 3.2,-0.66365 4,-1.69598c0.4,-0.58991 0.3,-1.40103 0.3,-1.99094c0,-0.44243 -0.1,-0.88486 -0.1,-1.25355c0,-0.22122 -1.1,-1.03234 -0.2,-0.66365c0.3,0.14748 -0.2,0.14748 -0.3,0.07374c-0.1,0 -0.1,-0.07374 -0.2,-0.07374c-0.3,-0.14748 0.2,-0.14748 0.3,-0.07374c1.4,0.51617 1.1,1.84346 1.1,2.80206c-0.1,1.76972 -1.3,2.28589 -3.4,2.80206c-2.4,0.66365 -5,1.69598 -6.8,3.02327c-0.8,0.58991 -1.4,1.17981 -2.5,1.47477c-1.2,0.36869 -2.6,0.22122 -3.9,0.14748c-2.4,-0.14748 -4.8,-0.58991 -7,-1.32729c-1.4,-0.51617 -3.6,-1.32729 -3.7,-2.58084c-0.2,-2.13841 4.2,-1.9172 5.8,-2.72832c1.8,-0.88486 2.7,-2.43337 4.7,-3.31823c0.2,0 0.6,0.22122 0.6,0.22122zM245.30491,173.98289c-1.4,2.21215 6.1,3.24449 7.9,3.39197c1.6,0.14748 3.2,0.07374 4.7,-0.44243c1.2,-0.44243 2.2,-1.10608 3.3,-1.54851c2.4,-1.03234 5.1,-1.69598 7.7,-2.43337c0.1,-0.07374 0.6,0.14748 0.4,0.14748c-3.3,1.03234 -6.7,1.84346 -9.6,3.39197c-2.5,1.25355 -4.9,1.32729 -7.8,0.9586c-1.8,-0.22122 -8.5,-1.40103 -7.1,-3.53944c0,-0.14748 0.6,0 0.5,0.07374zM259.90491,171.697c0.3,-0.58991 0.8,-1.10608 1.3,-1.69598c0.4,-0.44243 0.8,-0.66365 0,-0.9586c-0.7,-0.22122 -1.4,-0.44243 -2.1,-0.66365c-1.2,-0.29495 -2.6,-0.44243 -3.9,-0.51617c-1.6,-0.07374 -2.1,1.76972 -1.3,2.58084c0.2,0.22122 -0.3,0.29495 -0.5,0.14748c-0.7,-0.73738 -0.6,-2.80206 1,-2.94954c2.6,-0.22122 5.5,0.66365 7.8,1.54851c0.1,0.07374 0.2,0.14748 0.1,0.22122c-0.7,0.81112 -1.5,1.54851 -2,2.43337c0,0.14748 -0.5,0 -0.4,-0.14748zM253.70491,170.29597c1.4,1.25355 4.2,1.47477 6.2,1.32729c0.2,0 0.6,0.22122 0.3,0.22122c-2.3,0.14748 -5.5,-0.14748 -7.1,-1.54851c0,-0.07374 0.5,-0.07374 0.6,0zM250.80491,171.47579c1.1,0.07374 2.2,0.44243 3.2,0.73738c0.9,0.22122 1.8,0.58991 2.2,1.25355c0.3,0.44243 -0.8,0.44243 -1,0.07374c-0.3,-0.44243 -1,-0.66365 -1.6,-0.88486c-0.9,-0.22122 -1.7,-0.58991 -2.6,-0.66365c-0.7,0.07374 -0.9,-0.51617 -0.2,-0.51617zM251.60491,170.66466c1.2,0.07374 2.3,0.44243 3.4,0.73738c0.9,0.22122 1.8,0.58991 2.2,1.25355c0.1,0.22122 -0.9,0.07374 -1.1,-0.14748c-0.3,-0.44243 -0.9,-0.66365 -1.6,-0.88486c-0.8,-0.22122 -1.6,-0.58991 -2.5,-0.58991c-0.3,0 -1.1,-0.44243 -0.4,-0.36869zM249.60491,172.43439c1.2,0.07374 2.3,0.44243 3.4,0.81112c0.8,0.22122 1.7,0.58991 2,1.17981c0.1,0.22122 -0.9,0.14748 -1.1,-0.07374c-0.3,-0.51617 -1.1,-0.73738 -1.8,-0.88486c-0.8,-0.22122 -1.6,-0.51617 -2.5,-0.58991c-0.4,-0.07374 -0.8,-0.51617 0,-0.44243z" fill="#1d241c" fill-rule="nonzero"/></g><g data-paper-data="{&quot;index&quot;:null}" stroke="none"><path d="M223.20491,158.0554c-0.6,-0.51617 -0.3,0 0,-0.66365c0.3,-0.73738 0.6,-0.88486 0.6,-0.88486c0.4,-0.07374 0,-1.40103 0.2,-1.40103c1,-0.14748 1.4,-0.22122 1.8,-1.69598c0.3,-1.10608 0.5,-0.58991 0.7,-1.62224c0.3,-1.76972 1.2,-5.97281 1.6,-9.43851c0.2,-1.62224 1,-3.31823 0.6,-4.94047c-0.2,-0.81112 0.4,-1.62224 0,-2.35963c-0.5,-0.88486 -1.3,-1.62224 -1.4,-2.65458c-0.1,-0.51617 -0.1,-0.58991 0,-1.03234c0,-0.22122 0.5,-1.03234 0.5,-1.40103c0,-0.51617 -0.3,-0.88486 -0.4,-1.40103c-0.1,-0.58991 0.1,-0.73738 -0.4,-1.17981c-0.7,-0.58991 -0.5,-1.69598 -0.6,-2.43337c-0.1,-0.66365 -0.8,-1.54851 -1.1,-2.28589c-0.3,-0.73738 -0.5,-1.62224 -0.7,-2.35963c-0.2,-0.88486 -0.4,-1.62224 -0.7,-2.43337c-0.7,-1.62224 -0.5,-3.39197 -0.7,-5.08795c-0.2,-1.69598 0,-3.4657 0.1,-5.23543c0.1,-1.54851 0.1,-2.80206 0.4,-4.27683c0.1,-0.73738 0.4,-1.62224 0.6,-2.35963c0.1,-0.36869 0.4,-0.81112 0.6,-1.10608c0.1,-0.29495 0.2,-0.07374 0.4,-0.29495c2.5,0.44243 4.7,1.54851 7.2,2.21215c3.7,0.9586 7.3,1.10608 11.1,1.54851c4.1,0.44243 8.8,1.10608 12.8,0.22122c0,0 0.9,5.75159 0.9,6.71019c-0.1,2.06467 0.4,3.90813 0.5,5.97281c0.1,1.76972 0.7,3.4657 1.1,5.23543c0.2,0.88486 0.2,1.76972 0.5,2.58084c0.3,0.9586 0.4,2.06467 0.6,3.09701c0.3,1.10608 1.1,3.53944 0.7,3.02327c-0.5,-0.51617 1.7,2.06467 1.7,1.99094c-0.1,-0.73738 1.2,1.62224 1.6,2.28589c0.5,0.73738 0.4,1.9172 0.8,2.65458c0.8,1.54851 0.8,2.94954 1.2,4.49804c0.4,1.69598 0.6,3.68692 1.1,5.45664c0.4,1.99094 1.5,3.68692 2,5.53038c0.2,0.88486 0.6,1.69598 0.7,2.43337c0,0.44243 -0.2,0.88486 0,1.25355c0.2,0.36869 -0.3,1.10608 -0.2,1.47477c0.1,0.44243 -0.1,0.88486 0.2,1.25355c0.4,0.44243 -0.4,0.36869 -0.1,0.73738c0.2,0.29495 0,1.03234 -0.1,1.25355c-0.2,0.44243 0.6,1.17981 0.7,1.62224c0.3,1.03234 0.2,4.793 -0.2,5.45664c-0.4,0.66365 -2.9,1.25355 -1.5,0.73738c0.6,-0.14748 -0.7,0.29495 -2,0.73738c-1.2,0.36869 -0.7,0.14748 -1.7,0.44243c-0.5,0.14748 -1.9,-0.14748 -2.5,-0.14748c-1.4,0 -0.2,-0.81112 -1.3,-1.32729c-1.6,-0.66365 -4.5,-0.9586 -6.4,-1.17981c-0.8,-0.07374 0.3,-0.81112 -0.2,-1.9172c-1.3,-1.47477 -0.8,-1.40103 -1.6,-3.02327c0.5,-0.29495 2,0.07374 0.8,-1.54851c0,-0.44243 0.2,-1.25355 0.3,-1.84346c-0.2,-0.73738 -0.1,-0.07374 -0.2,-0.88486c-0.1,-0.81112 -0.6,-1.54851 -0.3,-2.35963c-0.1,-0.44243 -0.2,0.14748 -0.2,-0.51617c0,-0.51617 -0.3,-0.58991 -0.3,-1.10608c0,-1.40103 -0.4,-1.47477 -0.5,-2.8758c-0.1,-2.06467 -0.6,-3.17075 -0.8,-4.20309c-0.2,-1.03234 -0.7,-2.43337 -1.1,-3.4657c-0.4,-1.10608 -0.6,-2.35963 -0.9,-3.53944c-0.2,-1.03234 -0.4,-1.54851 -0.6,-2.58084c0,-0.44243 0,-0.73738 -0.4,-1.03234c-0.5,-0.36869 -0.6,-0.9586 -0.7,-1.47477c-0.2,-0.51617 -0.5,-0.81112 -0.4,-1.32729c0.1,-0.66365 0.8,-2.94954 0.1,-3.98187c-1.2,-1.54851 -2.2,-3.17075 -3.3,-4.71926c-0.6,-0.88486 -1.2,-1.76972 -2,-2.58084c-0.8,-0.81112 -0.8,-2.50711 -1.8,-3.09701c-0.5,0.58991 -0.6,1.40103 -0.6,2.06467c-0.1,0.73738 -0.2,1.47477 -0.4,2.21215c-0.1,0.66365 -0.5,1.32729 -0.7,1.99094c-0.4,1.84346 -0.3,3.53944 -0.1,5.3829c0.1,0.73738 0.4,1.32729 0.7,1.99094c0.2,0.66365 0.5,1.25355 0.7,1.84346c0.7,1.69598 1.1,3.31823 1,5.08795c-0.1,2.06467 0.3,4.4243 -0.7,6.3415c-0.4,0.88486 -0.1,2.35963 -0.8,3.17075c-0.7,0.81112 0.2,2.58084 0.5,3.09701c0.6,0.9586 0.6,0.58991 0.8,1.47477c0.1,0.81112 -1.3,2.28589 -1.3,3.09701c0,0.81112 -0.5,0.58991 0.3,1.10608c0.7,0.51617 0.7,1.47477 0.3,1.99094c-1.2,1.62224 0.3,2.58084 0.4,2.8758c0.4,0.66365 -2.4,1.69598 -3.6,1.84346c0.8,0 -0.6,0.44243 -1.3,0.51617c-1.1,0.14748 -0.3,0 -0.9,0.07374c-0.6,-0.07374 -0.2,0 -0.7,0.07374c-0.5,0.07374 -0.5,0 -1,0c-0.6,0 -1.3,0 -1.9,-0.14748c-0.5,-0.14748 -1.1,-0.22122 -1.6,-0.29495c-2.4,-0.29495 -4.3,-1.10608 -5.8,-1.9172c-0.6,-0.29495 -0.2,-2.13841 -0.4,-2.8758c-0.1,-0.36869 0.5,-0.73738 0.3,-1.10608c-0.1,-0.14748 -0.1,-0.22122 -0.2,-0.58991" fill="#536aa4" fill-rule="evenodd"/><path d="M239.30491,110.64162c-0.2,-0.22122 -7.5,-2.35963 -7.5,-2.28589c0.1,-0.07374 7.2,2.35963 7.3,2.58084c0.2,0.07374 0.5,0.07374 0.5,0c0.1,-0.07374 -0.1,-0.22122 -0.3,-0.29495zM225.70491,99.94955c-1.3,1.99094 -1.5,4.20309 -1.7,6.3415c-0.2,2.72832 -0.4,5.45664 -0.2,8.18496c0.2,2.65458 0.8,5.30916 1.8,7.89001c0.9,2.58084 1.8,5.16169 3.1,7.66879c0.1,0.14748 -0.5,0.07374 -0.5,-0.07374c-1.3,-2.50711 -2.1,-5.08795 -3.1,-7.66879c-1,-2.72832 -1.6,-5.53038 -1.8,-8.33244c-0.2,-2.50711 0.1,-5.01421 0.2,-7.52132c0.1,-2.28589 0.4,-4.64552 1.7,-6.71019c0,-0.07374 0.5,0.07374 0.5,0.22122zM236.30491,109.8305c1.3,3.76066 3.2,7.37384 5.3,10.91328c2.2,3.61318 5.2,6.93141 7,10.61833c0.1,0.14748 -0.5,0.07374 -0.5,-0.07374c-1.8,-3.61318 -4.7,-6.85767 -6.8,-10.32337c-2.2,-3.61318 -4.1,-7.37384 -5.5,-11.20823c0,-0.14748 0.5,-0.07374 0.5,0.07374zM256.70491,103.93143c0.5,2.13841 0.8,4.35056 1,6.48898c0.2,2.35963 0.1,4.64552 0.4,7.00515c0.3,2.43337 1.2,4.71926 1.8,7.07888c0.4,1.9172 0.6,3.90813 1.2,5.82533c0,0.07374 -0.5,0 -0.5,-0.07374c-0.6,-1.84346 -0.8,-3.68692 -1.1,-5.53038c-0.4,-2.21215 -1.3,-4.35056 -1.7,-6.63645c-0.4,-2.21215 -0.5,-4.4243 -0.5,-6.71019c0,-2.58084 -0.4,-5.08795 -1,-7.59505c-0.2,0 0.4,0.07374 0.4,0.14748zM229.20491,135.1965c-0.1,-0.07374 0.2,0 -0.8,-1.25355c-1.4,-1.25355 -0.2,-3.02327 -0.3,-4.12935c-0.1,-0.51617 -0.1,-0.36869 -0.1,0.14748c0,0.58991 -0.5,1.40103 -0.7,2.50711c-0.1,2.35963 2.9,4.05561 2.9,4.12935c1.2,0.73738 0.1,0.07374 0.3,-0.14748c-0.4,-0.29495 -1.1,-1.10608 -1.3,-1.25355zM229.00491,135.78641c0.9,4.20309 -0.6,7.52132 -1.2,11.7244c-0.3,2.58084 -0.9,5.3829 -2,7.89001c-0.1,0.14748 -0.6,0 -0.5,-0.07374c1.1,-2.50711 1.5,-5.16169 1.9,-7.74253c0.6,-4.20309 1.9,-8.33244 1,-12.46179c0.1,0.07374 0.2,0.29495 0.4,0.36869zM238.80491,134.38538c0.2,-2.65458 -0.4,-5.30916 -0.2,-7.96375c0.3,-2.50711 1.3,-5.01421 1.5,-7.52132c0,-0.07374 0.6,0 0.5,0.07374c-0.2,2.50711 -1.2,5.01421 -1.5,7.52132c-0.3,2.65458 0.4,5.30916 0.2,7.96375c0,0.07374 -0.5,0 -0.5,-0.07374zM239.20491,130.69846c0.1,1.9172 1.4,3.68692 1.7,5.53038c0.3,2.13841 0.3,4.27683 0.2,6.41524c-0.1,2.06467 -0.2,4.05561 -1,6.04655c-0.4,1.03234 -1.8,2.35963 -1.5,3.4657c0,0.07374 -0.5,0 -0.5,-0.07374c-0.3,-0.9586 0.8,-2.21215 1.2,-3.09701c1,-1.76972 1.1,-3.8344 1.1,-5.67786c0.1,-2.28589 0.2,-4.57178 -0.1,-6.85767c-0.3,-2.06467 -1.6,-3.90813 -1.8,-5.97281c0.2,0.07374 0.7,0.07374 0.7,0.22122zM256.60491,139.47333c0.1,0.07374 1.6,-0.73738 1.9,-1.84346c0.5,-1.10608 0.2,-2.13841 0.2,-2.13841c0,0 0.1,1.10608 -0.5,2.06467c-0.5,1.03234 -1.8,1.54851 -1.9,1.54851c-0.2,0.07374 -0.2,0.22122 -0.2,0.29495c0,0.07374 0.3,0.14748 0.5,0.07374zM250.80491,138.51473c0,-0.07374 -0.4,-0.66365 -1.1,-1.32729c-0.7,-0.73738 -1.6,-1.62224 -1.8,-2.72832c-0.1,-1.10608 0.4,-2.21215 0.5,-3.02327c0.2,-0.81112 0,-1.40103 0,-1.40103c0,0 0.1,0.58991 -0.1,1.40103c-0.2,0.81112 -0.8,1.84346 -0.7,3.02327c0.1,1.17981 1,2.21215 1.7,2.8758c0.6,0.73738 1,1.25355 1,1.32729c0.2,0.29495 0.4,0.44243 0.6,0.44243c0.1,0 0.1,-0.29495 -0.1,-0.58991zM261.50491,169.92728c1.1,0.14748 2.1,0.36869 3.2,0.29495c1.3,-0.07374 2.5,-0.58991 3.6,-1.03234c0.2,-0.07374 0.6,0.14748 0.3,0.29495c-1.2,0.44243 -2.4,0.88486 -3.7,1.03234c-1.1,0.14748 -2.4,-0.07374 -3.5,-0.29495c-0.4,-0.07374 -0.2,-0.36869 0.1,-0.29495zM254.30491,167.71513c0.1,-0.9586 0.2,-1.76972 -0.4,-2.65458c-0.4,-0.51617 -0.8,-0.9586 -1,-1.54851c-0.3,-0.66365 -0.1,-1.17981 1,-1.25355c1.2,-0.07374 2.4,0.9586 3.5,1.10608c2.3,0.29495 4.8,0.14748 7.2,-0.22122c0.2,0 0.6,0.22122 0.3,0.22122c-1.6,0.22122 -3.2,0.36869 -4.8,0.36869c-1.3,0 -2.8,0 -3.9,-0.44243c-0.7,-0.29495 -1.7,-0.9586 -2.5,-0.66365c-1,0.29495 0.1,1.54851 0.4,1.9172c0.9,1.10608 0.9,1.99094 0.8,3.24449c0,0.14748 -0.6,0.07374 -0.6,-0.07374zM262.60491,167.34644c-0.2,0 -3.2,-0.22122 -5.7,-1.32729c-2.7,-1.03234 -3.7,-3.24449 -3.6,-3.17075c-0.1,0 0.8,2.21215 3.5,3.39197c2.5,1.25355 5.6,1.54851 5.8,1.62224c0.4,0 0.7,-0.07374 0.8,-0.14748c-0.1,-0.22122 -0.4,-0.29495 -0.8,-0.36869zM267.60491,166.83027c0,0 -0.3,-0.07374 -0.7,-0.22122c-0.2,-0.07374 -0.4,-0.14748 -0.6,-0.29495c-0.1,0 -0.3,-0.36869 -0.2,0l0.4,-0.14748c1,-0.36869 2,-0.81112 2,-0.73738c0,0 -1,0.29495 -2.1,0.58991l-0.4,0.07374c-0.3,0.44243 0.1,0.29495 0.1,0.44243c0.2,0.14748 0.4,0.29495 0.6,0.36869c0.4,0.22122 0.7,0.29495 0.7,0.29495c0.2,0.07374 0.3,0 0.4,-0.14748c0,-0.07374 -0.1,-0.22122 -0.2,-0.22122zM249.00491,136.74501l3.5,11.35571l1.8,11.79814zM268.30491,162.33223c1.8,0.14748 3,0.58991 2.9,2.06467c-0.1,1.03234 -0.2,2.06467 -0.2,3.17075c0,1.17981 -1.4,1.54851 -2.6,2.06467c-0.1,0.07374 -0.6,-0.07374 -0.5,-0.14748c0.9,-0.36869 2,-0.66365 2.5,-1.40103c0.4,-0.51617 0.1,-1.47477 0.1,-1.99094c0,-1.69598 1.1,-3.24449 -2,-3.53944c-0.4,0 -0.6,-0.22122 -0.2,-0.22122zM270.00491,162.8484c-0.9,-2.06467 -0.4,-4.27683 -0.5,-6.3415c0,-1.25355 -0.4,-2.50711 -0.7,-3.68692c-0.3,-1.54851 -1.5,-2.8758 -1.9,-4.35056c-1.5,-5.97281 -1.3,-12.97796 -6.4,-18.0659c-0.2,-0.14748 0.4,-0.14748 0.5,0c2.4,2.35963 3.5,5.16169 4.3,7.96375c0.4,1.47477 0.7,2.94954 1,4.35056c0.4,1.84346 0.9,3.61318 1.1,5.45664c0.2,1.54851 1.3,2.8758 1.9,4.35056c0.4,1.17981 0.7,2.58084 0.8,3.8344c0.2,2.21215 -0.4,4.49804 0.5,6.63645c0,0.07374 -0.5,0 -0.6,-0.14748zM223.90491,161.8898c-1.6,1.76972 4.6,2.8758 6.1,3.17075c3.8,0.81112 7.8,0.07374 10.5,-1.99094c0.1,-0.07374 0.6,0.07374 0.5,0.14748c-2.9,2.28589 -7.1,2.72832 -11.1,1.99094c-1.5,-0.29495 -8.3,-1.47477 -6.6,-3.4657c0.1,-0.07374 0.6,0.07374 0.6,0.14748zM240.50491,163.14335c-0.7,-0.58991 -1.1,-0.88486 -1,-1.69598c0,-0.51617 0.2,-0.9586 0.5,-1.40103c0.3,-0.36869 0.8,-1.47477 -0.2,-1.69598c-0.3,-0.07374 -0.3,-0.29495 0.1,-0.22122c0.8,0.14748 1.1,0.73738 1,1.32729c0,0.51617 -0.7,1.03234 -0.9,1.62224c-0.3,0.81112 0.1,1.47477 0.9,2.06467c0.3,0.07374 -0.3,0.07374 -0.4,0zM224.70491,156.43316c3,1.17981 6.3,1.54851 9.7,1.62224c1.5,0.07374 3,0 4.4,0c0.6,0 1.1,0 1.7,0.22122c0.3,0.14748 -0.2,0.14748 -0.3,0.07374c-0.6,-0.22122 -1.4,-0.14748 -2.1,-0.14748c-0.8,0 -1.7,0 -2.5,0c-1.3,0 -2.7,-0.07374 -4,-0.14748c-2.5,-0.22122 -4.9,-0.73738 -7.2,-1.62224c-0.4,-0.07374 0.1,-0.07374 0.3,0zM224.80491,156.43316c-0.4,0.66365 -1.7,1.62224 -0.9,2.28589c0.7,0.51617 0,0.81112 0.1,1.40103c0,0.22122 -0.5,0.14748 -0.6,0c0,-0.36869 0.4,-0.81112 0.1,-1.17981c-0.2,-0.14748 -0.4,-0.29495 -0.5,-0.51617c-0.1,-0.81112 0.8,-1.40103 1.2,-2.06467c0.1,-0.22122 0.7,-0.14748 0.6,0.07374zM240.00491,149.20679c-0.7,0.9586 -0.5,2.06467 0,3.09701c0.3,0.66365 1,0.9586 1.1,1.62224c0.2,1.40103 -1.3,2.80206 -1,4.20309c0,0.22122 -0.5,0.14748 -0.6,0c-0.3,-1.47477 1.2,-2.8758 1,-4.35056c-0.1,-0.66365 -1.1,-1.25355 -1.4,-1.9172c-0.3,-0.88486 -0.3,-1.84346 0.2,-2.72832c0.3,-0.22122 0.8,-0.14748 0.7,0.07374zM225.80491,155.40082c-0.4,0.14748 -0.8,0.07374 -1.1,0.14748c-0.5,0.14748 0.2,0.81112 0.3,0.9586c0.1,0.14748 -0.5,0.07374 -0.5,-0.07374c-0.2,-0.36869 -0.7,-0.73738 -0.3,-1.03234c0.3,-0.22122 0.9,-0.07374 1.3,-0.22122c0,0 0.5,0.14748 0.3,0.22122zM223.80491,159.16148c0,0.29495 2.3,1.17981 4.7,1.47477c2.4,0.51617 4.8,0.22122 4.7,0.14748c0,0.14748 -2.4,0.29495 -4.6,-0.29495c-2.4,-0.44243 -4.4,-1.40103 -4.3,-1.54851c-0.2,-0.14748 -0.4,-0.29495 -0.5,-0.22122c-0.3,-0.07374 -0.3,0.22122 0,0.44243zM254.50491,159.60391c0.1,0.44243 -0.1,0.81112 -0.3,1.25355c-0.2,0.58991 0.2,1.03234 0.6,1.47477c0.1,0.14748 -0.4,0.14748 -0.5,0c-0.3,-0.36869 -0.7,-0.66365 -0.7,-1.10608c0,-0.58991 0.5,-1.10608 0.4,-1.69598c-0.1,-0.14748 0.5,-0.07374 0.5,0.07374zM223.30491,161.81606c0.7,-0.51617 0.1,-1.10608 0.1,-1.76972c0,-0.07374 0.5,0 0.5,0.07374c0,0.66365 0.5,1.25355 -0.1,1.76972c-0.1,0.14748 -0.6,0 -0.5,-0.07374z" fill="#1d241c" fill-rule="nonzero"/></g><g data-paper-data="{&quot;index&quot;:null}"><path d="M253.80491,41.32754c0.9,0.44243 1,-1.47477 0.7,0.44243c0,0.51617 0.5,0.9586 0.8,1.25355c0.3,0.29495 0.6,0.51617 0.9,0.9586c0.4,0.44243 0.6,0.9586 0.9,1.32729c0.5,0.66365 0.7,1.40103 0.6,2.21215c-0.2,1.76972 -1.1,3.98187 -3.1,5.01421c0.9,0 1.4,-0.07374 2.2,-0.36869c0.3,-0.14748 1,-0.22122 1.3,-0.44243c0.2,-0.22122 0.7,-0.58991 1.1,-0.73738c0.4,-0.07374 1.2,-0.07374 1.5,0.07374c0.6,0.22122 0.6,0.58991 0.8,0.9586c0.3,0.73738 -0.2,1.84346 -0.7,2.50711c-0.5,0.66365 -1.9,1.10608 -2.7,1.54851c-0.5,0.22122 -1.1,0.07374 -1.7,0.07374c-0.6,0 -0.4,-0.07374 -0.9,-0.14748c-0.4,0.66365 -1.8,1.17981 -2.5,1.69598c-0.8,0.51617 -2.6,1.25355 -3.5,1.54851c0,0.14748 -0.1,0.07374 0,0.22122c0,-0.07374 0.2,-0.22122 0.2,-0.29495c0,0.81112 0.2,1.84346 0.5,2.58084c0.1,0.36869 0.1,0.73738 0.3,1.10608c0.2,0.29495 0.3,0.66365 0.7,0.81112c-0.3,0.58991 -0.8,1.03234 -1.3,1.17981c-0.6,0.44243 -0.9,0.81112 -1.3,1.32729c1.8,-0.58991 3,-1.84346 5.3,-1.69598c-0.8,0.73738 -2.2,1.10608 -2.7,1.99094c-0.3,0.44243 -0.4,0.81112 -0.7,1.25355c-0.3,0.51617 -0.1,0.9586 -0.1,1.54851c0,0.44243 0.4,0.51617 -0.5,0.81112c-0.5,0.22122 -0.9,0.51617 -1.4,0.81112c-1,0.58991 -2.2,1.03234 -3.4,1.32729c-2,0.51617 -4.7,0.51617 -6.3,-0.58991c-1.4,-1.03234 -2,-2.43337 -2,-3.8344c0,-0.44243 0.1,-0.81112 0.3,-1.17981c0.1,-0.29495 0,-1.25355 0.4,-1.25355c0.7,0 2.6,-0.22122 3.3,-0.22122c0.2,-0.58991 0.5,-1.25355 0.5,-1.9172c0,-0.22122 0.3,-1.17981 0.1,-1.40103c-0.2,-0.22122 -0.6,-0.07374 -0.9,-0.22122c-0.4,-0.14748 -1,-0.29495 -1.4,-0.51617c-0.5,-0.22122 -1.2,-0.58991 -1.7,-0.81112c-1.1,-0.36869 -1.3,-0.81112 -2.1,-1.40103c-0.8,-0.58991 -1.4,-1.10608 -2.1,-1.76972c-0.3,-0.29495 -0.7,-0.58991 -0.9,-0.9586c-0.2,-0.36869 -0.5,-0.81112 -0.8,-1.10608c-1.3,-1.25355 -0.9,-2.72832 -0.2,-4.05561c0.2,-0.36869 0.5,-0.73738 0.8,-1.10608c0.3,-0.29495 0.5,-0.88486 0.7,-1.25355c0.2,-0.29495 0.3,-0.81112 0.1,-1.10608c-0.2,-0.29495 0.3,-0.36869 0.2,-0.73738c0,-0.22122 0.3,-1.10608 0.3,-1.32729c0.2,-1.10608 -0.4,-1.17981 0.4,-2.21215c0.6,-0.66365 0.9,-1.25355 1.4,-1.76972c1.4,-1.62224 5.3,-1.25355 7.8,-0.88486c1.4,0.22122 2.8,0.58991 4.2,0.66365c1.5,0.07374 3,0.51617 4.5,0.36869c0,0 0.5,0.22122 0.5,0.14748c0.7,-0.14748 1.1,-0.14748 1.8,-0.22122c0,-0.07374 -0.7,0.22122 -0.8,0.14748" fill="#deb252" fill-rule="evenodd" stroke="none"/><path d="M266.30491,75.68962c0,2.35963 0.2,4.793 0.2,7.22636c0,0.73738 0.2,1.17981 0.4,1.84346c0.2,0.66365 0,1.32729 0.1,1.99094c0.2,1.10608 0.6,2.21215 0.8,3.31823c0.5,2.35963 0.1,4.12935 -0.4,6.3415c-0.3,1.32729 -0.9,3.24449 -1.3,4.49804c-0.4,1.17981 -1,2.35963 -1.1,3.53944c-0.2,2.13841 0.7,4.35056 2,6.19402c0.8,1.10608 0.9,1.9172 0.9,3.24449c0,0.58991 0,1.17981 0,1.69598c0,0.29495 0.4,0.44243 0.2,0.66365c-0.1,0.07374 -0.6,0.07374 -0.7,0.22122c-0.1,0.07374 -0.4,0.51617 -0.4,0.51617c-0.8,0.29495 -2.4,1.17981 -3.5,1.25355c-0.8,0.07374 -1.8,-1.47477 -2.6,-1.99094c-0.4,0.29495 -0.3,1.76972 -2.2,1.62224c-0.2,-0.44243 0.7,-1.69598 0.6,-2.21215c0,-0.51617 0.1,-0.88486 0,-1.40103c-0.3,-1.03234 -0.4,-2.21215 -0.4,-3.24449c0,-0.9586 -0.1,-2.35963 0.1,-3.31823c0.1,-1.17981 0.5,-2.21215 0.7,-3.39197c0.3,-2.35963 -0.5,-3.8344 -0.7,-6.19402c-0.1,-1.17981 -0.1,-2.80206 0.2,-3.90813c0.4,-1.17981 1,-2.28589 1,-3.53944c0,-1.17981 -0.4,-1.9172 -0.6,-3.02327c-0.3,-1.32729 -0.9,-3.02327 -0.9,-4.4243c0,-1.25355 -0.1,-2.72832 -0.4,-3.98187c-0.2,-0.58991 -0.5,-1.10608 0.2,-1.54851c0.5,-0.36869 1.7,-0.66365 2.3,-0.9586c1.7,-0.81112 3.9,-1.10608 5.9,-1.10608" fill="#deb252" fill-rule="evenodd" stroke="none"/><path d="M229.60491,77.16439c0.5,1.32729 1.3,2.43337 1.2,3.39197c-0.3,1.32729 -1.1,2.80206 -0.9,4.05561c0.1,0.58991 -0.1,1.03234 -0.3,1.54851c-0.3,0.58991 -0.2,1.10608 -0.3,1.69598c-0.2,0.9586 -0.8,1.99094 -1.2,2.8758c-0.5,1.03234 -1.1,1.9172 -1.7,2.8758c-0.3,0.51617 -0.5,0.88486 -0.7,1.40103c-0.2,0.51617 -0.7,1.03234 -0.7,1.62224c-0.8,0 -2.1,1.17981 -2,1.62224c0.1,1.03234 1.5,1.03234 2.6,1.32729c-0.3,0.29495 -0.7,0.73738 -1,1.32729c-0.2,0.58991 -0.6,1.17981 -0.6,1.9172c-0.1,0.81112 -0.4,1.47477 -0.5,2.28589c-0.1,1.54851 0,1.25355 0.1,2.58084c0.1,1.03234 -0.2,4.20309 -0.3,5.23543c-0.1,0.66365 0.1,1.10608 -0.7,1.32729c-0.7,0.22122 -1.8,0.07374 -2.5,-0.07374c-0.9,-0.14748 -0.4,-0.07374 -0.9,0.22122c-0.3,0.22122 -0.3,0.36869 -0.6,0.58991c-0.3,0.29495 -1.1,1.03234 -1.7,0.44243c-0.2,-0.29495 0.4,-1.17981 0.3,-1.47477c-0.1,-0.66365 -0.5,-0.9586 -0.8,-1.54851c-0.3,-0.81112 0.2,-2.43337 0.6,-3.17075c0.6,-0.9586 1.3,-1.9172 2.4,-2.58084c1.3,-0.81112 1.2,-1.54851 1.1,-2.80206c0,-0.58991 0.1,-1.25355 0.1,-1.84346c0,-0.51617 0,-1.10608 0,-1.69598c0,-2.28589 -0.7,-4.35056 -0.2,-6.63645c0.3,-1.03234 0.7,-2.06467 0.8,-3.17075c0.2,-1.17981 0.8,-1.9172 1.5,-2.94954c0.6,-0.9586 1.3,-1.9172 1.8,-2.8758c0.5,-0.9586 0.5,-2.28589 0.8,-3.31823c0.2,-1.10608 0.5,-2.21215 0.8,-3.39197c0.2,-1.10608 0.4,-2.13841 0.8,-3.24449c0.7,0.73738 1.5,1.84346 2.7,2.43337" fill="#deb252" fill-rule="evenodd" stroke="none"/><path d="M266.50491,77.45935c-0.8,0.36869 -0.1,-1.32729 -0.2,-2.13841c0,0 0.1,0.07374 -1.6,0.07374c-0.8,0 -2,0.44243 -2.5,0.44243c-1.2,0 -3.7,1.10608 -4.5,2.13841c-0.1,0.29495 0.2,1.40103 0.1,1.84346c-0.1,1.17981 0.5,0.81112 0.2,1.03234c-0.7,0.44243 -0.1,1.03234 -1,1.17981c-0.5,0.29495 -0.2,0.22122 -0.4,0.58991c-0.1,0.44243 -0.9,1.03234 -1.1,1.47477c-1,2.06467 -1.9,3.17075 -2.5,4.793c-0.3,0.81112 -0.2,1.69598 -0.3,2.58084c0,0.51617 0.1,1.25355 0.2,1.76972c0,0.44243 0.1,0.81112 0.2,1.25355c0.1,0.44243 0.2,0.51617 0.4,0.88486c0.2,0.51617 0.2,0.22122 0.7,0.66365c0.5,0.44243 0.3,0.22122 0.7,0.58991c0.4,0.36869 0.4,0.36869 0.4,0.66365c0.1,0.58991 -0.3,0.44243 -0.4,0.9586c-0.2,0.51617 1.4,0.81112 0.9,1.10608c-0.5,0.36869 0,0.44243 0.4,1.25355c0.4,0.81112 2.1,1.69598 0.1,2.8758c-0.5,0.36869 -2.6,1.10608 -3.3,1.10608c-0.8,0 -2.2,0.36869 -3,0.36869c-3.3,0.14748 -7.1,0.22122 -10.7,-0.14748c-3.3,-0.29495 -6,-0.9586 -8.9,-1.9172c-1.3,-0.44243 -4.4,-2.28589 -5.2,-3.09701c-0.7,-0.66365 0.2,1.25355 -0.9,1.17981c-1.4,-1.10608 -2.7,-3.17075 -0.5,-3.98187c0.8,-0.22122 1.2,-0.73738 1.5,-1.47477c0.6,-1.76972 1.8,-3.4657 2.8,-5.08795c0.5,-0.81112 0.4,-1.25355 0.8,-2.13841c0.4,-0.9586 0,-1.62224 0.4,-2.65458c0.6,-1.47477 0.1,-2.35963 0.7,-4.12935c0.3,-0.73738 0.1,-1.84346 -0.1,-2.35963c0,-0.22122 -0.3,-0.29495 -0.2,-0.73738c0.1,-0.36869 -0.3,-1.10608 -0.2,-1.47477c-0.8,0.29495 -0.2,-0.22122 -1.1,-0.36869c0.1,0 -1,-0.9586 -1,-1.10608c-0.8,-0.73738 -1.2,-1.76972 -2.1,-2.94954c-0.4,-0.51617 0.2,-0.51617 -0.3,-0.07374c-0.6,0.51617 2.1,-1.17981 2.6,-2.21215c0.6,-0.44243 0.5,-1.03234 1.1,-1.76972c0.8,-0.88486 1.1,-1.84346 2.1,-2.58084c0.9,-0.66365 2.5,-0.88486 3.9,-1.10608c1.5,-0.22122 2.3,0.22122 3.8,0.22122c0.5,0 -0.8,-0.14748 -0.5,0.14748c0.3,0.29495 -0.6,1.25355 -0.7,1.62224c-0.2,0.58991 -0.2,2.35963 0,2.80206c0.2,0.36869 0.8,1.54851 1.2,1.99094c0.9,0.9586 3.6,1.69598 6.4,0.9586c1.2,-0.29495 2.5,-0.9586 3.7,-1.47477c1.3,-0.51617 1.7,-0.9586 3.1,-1.32729c0.4,-0.29495 0.7,-1.10608 0.6,-1.10608c0.5,-0.44243 1.7,-1.17981 2.4,-1.40103c1,-0.29495 0.6,-0.29495 1.3,-0.66365c1.9,-0.9586 4.7,-0.22122 6.7,0.22122c2.5,0.51617 3.5,3.61318 4.5,5.23543c0.8,1.25355 1.2,2.13841 2.2,3.31823c-1.1,1.10608 -3.3,2.65458 -2.9,2.50711M241.30491,64.77634c0,0.22122 -0.1,0.44243 -0.4,0.58991c-0.4,0.14748 -1.1,0.14748 -1.6,0.14748c-0.3,0 -0.8,0.07374 -1.1,0c-0.2,-0.07374 -0.2,-0.29495 0.1,-0.36869c0.2,-0.07374 0.4,0 0.6,0c0.3,0 0.6,0 0.9,-0.07374c0.2,-0.07374 0.4,-0.07374 0.6,-0.14748c0.2,-0.07374 0.5,-0.22122 0.8,-0.22122" fill="#2fa64a" fill-rule="nonzero" stroke="none"/><path d="M252.20491,49.58624c0.4,0.14748 -0.2,1.03234 -0.4,1.17981c-0.4,0.44243 -1.9,1.17981 -2.5,1.25355c-0.6,0.07374 -1.7,-0.29495 -2.2,-0.44243c-0.6,-0.14748 -0.8,-0.14748 -1.3,-0.36869c-0.1,0 -0.8,-0.22122 -0.5,-0.58991c0.1,-0.07374 0.6,-0.58991 0.7,-0.66365c0.3,-0.22122 0.8,-0.51617 1.1,-0.66365c0.4,-0.22122 0.6,-0.07374 1.2,-0.22122c0.5,-0.07374 1.4,0 1.9,0c0.9,0 1.1,0.22122 2.1,0.29495M237.90491,49.58624c0.2,0.07374 0.2,0.22122 0.3,0.36869c0.1,0.29495 0.6,0.66365 0.2,0.73738c-0.3,0.07374 -1.8,0.51617 -2.2,0.51617c-0.7,0.07374 -1.9,-0.22122 -2.6,-0.73738c-0.2,-0.22122 -0.3,-0.44243 -0.4,-0.66365c-0.1,-0.22122 -0.4,-1.10608 -0.2,-1.25355c0.3,-0.29495 0.3,-0.29495 1,-0.29495c0.6,-0.07374 1.2,0 1.8,0.14748c0.4,0.07374 0.9,0.22122 1.1,0.36869c0.2,0.07374 0.5,0.22122 0.6,0.29495c0.1,0.07374 0.3,0 0.3,0.14748" fill="#ffffff" fill-rule="nonzero" stroke="none"/><path d="M260.40491,35.64968c4.5,0.36869 6.6,3.24449 6.8,7.00515c-0.1,2.50711 0,5.01421 0.3,7.3001c0,0.51617 0,1.32729 0.2,1.9172c0.2,0.58991 0.3,1.40103 0.5,1.99094c0.3,1.17981 0.7,1.69598 1.3,2.80206c0.4,0.66365 0.5,1.47477 1.1,2.06467c0.4,0.44243 0.7,1.25355 0.9,1.76972c0.3,1.03234 0.4,1.99094 0,2.94954c-0.4,0.9586 -1.1,1.76972 -2,2.50711c-1.1,0.88486 -1.6,1.76972 -3.3,1.9172c0.8,-0.36869 1.5,-1.10608 1.5,-1.9172c0,-0.22122 -0.5,-0.9586 -0.8,-1.10608c-0.6,-0.29495 -0.6,0.44243 -0.8,0.73738c-0.9,1.76972 -4.2,2.80206 -6.3,3.8344c-1.3,0.58991 -2.5,1.25355 -3.8,1.84346c-0.7,0.29495 -1.1,0.66365 -1.6,1.17981c-0.4,0.36869 -0.2,0.73738 -0.8,1.03234c0,-0.88486 -1.2,-1.47477 -1.8,-2.21215c-0.7,-0.73738 -0.9,-1.69598 -0.9,-2.58084c0.1,-1.47477 1.9,-3.4657 3.9,-3.98187c-1.7,0.29495 -4.7,1.17981 -5.2,1.62224c-0.5,-0.36869 1.2,-1.47477 2.3,-1.99094c-0.8,-0.58991 -0.9,-1.32729 -1,-2.06467c0,-0.44243 -0.1,-1.10608 -0.1,-1.54851c0,-0.29495 -0.4,-0.88486 -0.2,-1.17981c0.3,-0.58991 2.2,-1.17981 2.9,-1.62224c0.8,-0.51617 1.9,-0.88486 2.2,-1.76972c0.2,0 0.4,0.07374 0.5,0.07374c0.8,-0.07374 1.5,0.22122 2.4,0c0.7,-0.14748 1.2,-0.44243 1.8,-0.73738c1.2,-0.73738 1.5,-1.76972 1.3,-2.8758c-0.1,-0.44243 -0.1,-1.17981 -0.9,-1.40103c-0.8,-0.22122 -1.3,0.14748 -1.8,0.51617c-0.3,0.22122 -0.6,0.29495 -1.1,0.44243c-0.3,0.07374 -0.4,0.14748 -0.7,0.22122c-0.6,0.14748 -1.4,0.36869 -2.1,0.36869l0.2,-0.14748c0.1,-0.36869 1.2,-1.03234 1.5,-1.32729c0.5,-0.58991 0.5,-0.9586 0.7,-1.54851c0.4,-1.10608 0.6,-1.9172 0.3,-3.09701c-0.1,-0.51617 -0.2,-0.9586 -0.6,-1.40103c-0.4,-0.51617 -0.5,-0.9586 -0.9,-1.40103c-0.6,-0.66365 -1.8,-0.81112 -1.4,-2.72832c-0.1,0.66365 -4.3,0.9586 -6.7,0.44243c-2.6,-0.51617 -5,-1.03234 -7.6,-1.25355c-1.3,0 -3.3,0.07374 -4.3,0.73738c-1.5,0.88486 -2.3,1.76972 -2.5,3.02327c-0.2,1.17981 -0.3,2.21215 -0.5,3.39197c-0.1,0.58991 0,1.17981 -0.2,1.69598c-0.2,0.51617 -0.6,0.9586 -0.9,1.47477c-1.3,1.99094 -1,4.20309 1,6.12029c0.9,0.81112 1.8,1.9172 2.9,2.65458c1.1,0.66365 1.9,1.40103 3.3,1.9172c0.5,0.22122 1.5,0.29495 2,0.58991c0.6,0.36869 0.5,1.03234 0.4,1.62224c-0.3,1.69598 -0.5,1.32729 -2.8,1.54851c-1.6,0.07374 -3,-0.29495 -4.6,-0.14748c-0.6,0 -1.8,0.58991 -2.3,0.51617c-1,-0.14748 -0.6,-0.9586 -0.6,-1.40103c-0.9,0.22122 -2.2,1.17981 -2.1,1.9172c0,-0.81112 -0.9,-1.40103 -0.6,-2.28589c0.3,-0.73738 1,-1.10608 1.3,-1.76972c0.4,-0.81112 1.3,-1.84346 1.3,-2.72832c0,-0.81112 0.4,-1.25355 0,-1.84346c-1.1,-1.03234 -2.2,-2.13841 -2.8,-3.31823c-0.6,-1.17981 -0.8,-2.06467 -0.9,-3.31823c-0.1,-2.43337 0,-4.94047 0.6,-7.3001c0.3,-1.25355 1.2,-2.21215 1.8,-3.39197c0.6,-1.25355 1.4,-2.21215 2.6,-3.24449c2.4,-1.9172 6.1,-3.39197 9.5,-3.90813c3.4,-0.51617 7.4,-0.81112 10.8,-0.14748c1.6,0.29495 3.2,0.44243 4.7,0.9586c0.7,0.22122 1.4,0.36869 2,0.66365c0.8,0.36869 0.7,0.66365 0.7,1.32729" fill="#613d27" fill-rule="evenodd" stroke="none"/><path d="M264.60491,117.64677c0.3,0 0.7,-0.14748 0.9,-0.36869c0.1,-0.07374 0.5,0.07374 0.4,0.07374c-0.3,0.22122 -0.7,0.36869 -1.1,0.36869c-0.2,0.07374 -0.3,0.07374 -0.2,-0.07374c-0.2,0 -0.1,0 0,0zM266.00491,75.61589v0c0.1,-0.22122 0.5,-0.14748 0.6,0.07374c0.2,0.66365 0,1.40103 0,1.99094c0,1.17981 0.1,2.35963 0.2,3.4657c0.3,3.24449 0.7,6.48898 1.6,9.73347c0.1,0.22122 -0.5,0.14748 -0.6,0c-0.8,-3.09701 -1.2,-6.19402 -1.5,-9.36477c-0.1,-1.17981 -0.2,-2.43337 -0.3,-3.68692c0,-0.66365 0.2,-1.47477 0,-2.21215c0.2,0 0.4,0.07374 0.6,0.07374v0c-0.1,0.22122 -0.7,0.14748 -0.6,-0.07374zM257.80491,78.19673c0.8,4.05561 1.5,8.18496 2.3,12.24057c0,0.22122 -0.5,0.14748 -0.6,0c-0.9,-4.05561 -1.5,-8.18496 -2.3,-12.24057c0.1,-0.22122 0.6,-0.14748 0.6,0zM260.20491,90.51104c-0.1,1.17981 -0.5,2.35963 -0.8,3.53944c-0.4,1.25355 -0.4,2.58084 -0.3,3.8344c0.2,2.21215 0.7,4.4243 0.6,6.71019c0,0.14748 -0.6,0.07374 -0.5,-0.07374c0.1,-2.35963 -0.4,-4.64552 -0.6,-6.93141c-0.1,-1.10608 -0.1,-2.13841 0.2,-3.24449c0.3,-1.32729 0.8,-2.58084 0.9,-3.90813c-0.1,-0.22122 0.5,-0.07374 0.5,0.07374zM268.30491,90.95347c0,1.03234 -0.1,2.13841 -0.2,3.17075c-0.1,1.47477 -0.8,2.94954 -1.3,4.4243c-0.4,0.88486 -0.6,1.84346 -0.8,2.72832c-0.2,1.10608 -0.7,2.13841 -1,3.24449c0,0.14748 -0.6,0.07374 -0.5,-0.07374c0.2,-1.03234 0.7,-1.99094 0.9,-2.94954c0.2,-0.88486 0.4,-1.76972 0.7,-2.72832c0.5,-1.32729 1.1,-2.65458 1.4,-4.05561c0.3,-1.25355 0.2,-2.58084 0.3,-3.8344c0,-0.14748 0.5,-0.07374 0.5,0.07374zM264.20491,88.66758c-0.5,0.66365 -1.1,1.10608 -2.2,1.17981c-0.2,0 -0.4,-0.14748 -0.2,-0.22122c1,-0.07374 1.5,-0.51617 2,-1.10608c0.1,-0.07374 0.5,0.07374 0.4,0.14748zM259.50491,104.30012c-0.5,3.53944 -0.9,7.3001 -0.1,10.7658c0,0.14748 -0.4,0.07374 -0.4,0c-0.8,-3.53944 -0.4,-7.3001 0.1,-10.83954c0,-0.14748 0.4,-0.07374 0.4,0.07374zM265.00491,104.52133c0,0.88486 0.2,1.76972 0.3,2.65458c0,1.03234 0.6,1.84346 1.3,2.80206c0.6,0.88486 1.2,1.69598 1.6,2.65458c0,0.14748 0,0.22122 -0.1,0.36869c-0.1,0.44243 -0.1,0.9586 -0.1,1.47477c0,0.58991 0.1,1.25355 0.1,1.84346c0,0.14748 -0.4,0.07374 -0.4,0c-0.1,-1.03234 -0.2,-1.99094 -0.1,-3.02327c0.1,-1.25355 -0.8,-2.43337 -1.6,-3.53944c-0.5,-0.73738 -1,-1.40103 -1.1,-2.28589c-0.1,-1.03234 -0.2,-1.99094 -0.3,-3.02327c0,-0.07374 0.4,0 0.4,0.07374zM259.40491,115.06592c-0.2,1.03234 -0.5,1.99094 -0.8,2.94954c-0.1,0 -0.1,-0.07374 -0.2,-0.07374c1.2,0.22122 1.9,-1.03234 1.9,-1.69598c0,-0.07374 0.4,0 0.4,0.07374c0,0.9586 -1,1.99094 -2.4,1.69598l-0.2,-0.07374c0.3,-0.9586 0.6,-1.99094 0.8,-2.94954c0.1,-0.07374 0.5,0 0.5,0.07374zM259.50491,114.99218c1.1,1.17981 2.5,2.21215 3.8,3.31823c0.2,0.14748 -0.2,0.22122 -0.3,0.07374c-1.2,-1.10608 -2.7,-2.13841 -3.8,-3.31823c-0.2,-0.14748 0.2,-0.22122 0.3,-0.07374zM262.40491,114.84471c0.4,1.10608 1.4,2.06467 2.3,2.94954c0,0 -0.3,0 -0.4,-0.07374c-0.9,-0.88486 -1.9,-1.84346 -2.3,-2.94954c0,0 0.4,0 0.4,0.07374zM264.50491,114.77097c0,0.44243 0.3,0.88486 0.5,1.32729c0.2,0.44243 0.5,0.88486 0.9,1.17981c0.2,0.14748 -0.2,0.22122 -0.3,0.07374c-0.5,-0.36869 -0.7,-0.81112 -1,-1.25355c-0.2,-0.44243 -0.5,-0.88486 -0.5,-1.40103c0,-0.07374 0.4,0 0.4,0.07374zM265.00491,117.86798c-0.5,0.22122 -1.1,0.51617 -1.8,0.58991c-0.1,0 -0.5,-0.14748 -0.2,-0.14748c0.6,-0.07374 1.2,-0.29495 1.7,-0.58991c0.1,-0.07374 0.5,0 0.3,0.14748zM265.80491,117.27807c0.8,-0.29495 1,-0.44243 0.7,-1.10608c-0.3,-0.66365 -0.6,-1.40103 -0.8,-2.06467c0,-0.14748 0.4,-0.14748 0.4,0c0.2,0.88486 0.7,1.69598 1,2.58084c0.1,0.44243 -0.6,0.66365 -1.1,0.81112c-0.1,0 -0.4,-0.14748 -0.2,-0.22122zM268.10491,116.39321c-0.3,0.07374 -0.5,0.07374 -0.8,0.22122c-0.1,0 -0.2,0 -0.3,0c0,0 -0.2,-0.07374 -0.1,-0.07374c0.3,-0.07374 0.5,-0.14748 0.8,-0.22122c0.1,0 0.2,0 0.3,0.07374c0.1,-0.07374 0.2,0 0.1,0z" fill="#1d241c" fill-rule="nonzero" stroke="none"/><path d="M226.90491,74.58355c-0.4,2.28589 -1,4.49804 -1.5,6.78393c-0.4,1.54851 -0.4,3.17075 -1.4,4.64552c-0.4,0.58991 -0.9,1.10608 -1.4,1.69598c-0.6,0.66365 -0.9,1.47477 -1.2,2.21215c-1.2,2.80206 -0.9,5.82533 -0.9,8.70113c0,2.43337 0.1,4.86673 0.2,7.3001c0,0.07374 -0.5,0 -0.5,-0.07374c-0.1,-2.35963 -0.1,-4.64552 -0.2,-7.00515c-0.1,-2.94954 -0.2,-6.19402 0.9,-8.99608c0.5,-1.32729 1.4,-2.43337 2.4,-3.61318c1.1,-1.32729 1.2,-3.02327 1.5,-4.49804c0.5,-2.43337 1.3,-4.793 1.7,-7.22636c-0.1,-0.22122 0.3,-0.14748 0.4,0.07374zM223.60491,105.77489c0.6,1.32729 0.6,2.94954 -0.5,4.12935c-0.7,0.66365 -1.6,1.10608 -2.4,1.69598c-1,0.66365 -0.8,1.69598 -1.1,2.65458c-0.1,0.14748 -0.6,0 -0.5,-0.07374c0.3,-0.73738 0.2,-1.47477 0.7,-2.13841c0.4,-0.66365 1.4,-1.03234 2.1,-1.47477c1.8,-1.17981 2,-3.17075 1.3,-4.71926c-0.2,-0.29495 0.3,-0.22122 0.4,-0.07374zM220.70491,105.9961c-1.6,0.88486 -2.6,2.06467 -3.3,3.39197c-0.3,0.58991 -0.5,1.25355 -0.7,1.9172c-0.1,0.44243 -0.1,0.88486 -0.1,1.25355c0.1,0.36869 0.6,0.81112 0.9,1.10608c0.1,0.14748 -0.4,0.14748 -0.5,0c-0.4,-0.44243 -1,-0.88486 -0.9,-1.47477c0,-0.81112 0.2,-1.62224 0.6,-2.35963c0.6,-1.54851 1.8,-3.02327 3.6,-3.98187c0.1,-0.14748 0.6,0 0.4,0.14748zM219.60491,114.10732c1.2,0.36869 2.5,0.07374 3.7,-0.07374c0.2,0 0.6,0.22122 0.3,0.22122c-1.4,0.14748 -2.9,0.44243 -4.3,0c-0.3,-0.07374 0,-0.22122 0.3,-0.14748zM219.50491,112.63256c1.2,-0.29495 2.9,-0.29495 4,0.29495c0.3,0.14748 -0.1,0.29495 -0.4,0.22122c-0.8,-0.44243 -2.3,-0.44243 -3.3,-0.22122c-0.2,0 -0.6,-0.22122 -0.3,-0.29495zM219.70491,112.41134c0.3,-0.44243 1.3,-0.44243 1.8,-0.44243c0.7,0 1.5,0.14748 2.1,0.51617c0.1,0.07374 -0.4,0.07374 -0.5,0c-0.5,-0.36869 -1.2,-0.36869 -1.8,-0.29495c-0.3,0 -0.9,0.14748 -1,0.36869c-0.2,0.07374 -0.7,-0.07374 -0.6,-0.14748zM219.80491,113.36994c-0.4,0.81112 -1,2.80206 -2.7,2.43337c-0.6,-0.14748 -0.5,-0.51617 -0.4,-0.88486c0.3,-1.10608 0.8,-2.13841 0.7,-3.31823c0,-0.14748 0.5,-0.07374 0.5,0.07374c0.2,1.25355 -0.4,2.43337 -0.8,3.61318c-0.2,0.73738 0.8,0.07374 1,-0.14748c0.6,-0.44243 0.7,-1.25355 1,-1.84346c0.2,-0.14748 0.8,-0.07374 0.7,0.07374z" fill="#1d241c" fill-rule="nonzero" stroke="none"/><path d="M224.00491,99.35965c1.4,0 2.4,1.10608 3.4,1.69598c1.4,0.88486 2.8,1.69598 4.4,2.28589c2.9,1.03234 6.3,1.32729 9.4,1.54851c3.5,0.22122 7.1,0.22122 10.5,-0.14748c1.4,-0.14748 2.8,-0.44243 4,-0.88486c0.5,-0.22122 0.9,-0.44243 1.2,-0.81112c0.6,-0.66365 -0.5,-1.62224 -1,-2.13841c-0.1,-0.14748 0.4,-0.14748 0.5,0c0.8,0.9586 1.8,1.69598 0.6,2.65458c-0.8,0.66365 -2.1,0.9586 -3.1,1.17981c-3.4,0.73738 -7.1,0.66365 -10.5,0.58991c-3.3,-0.07374 -6.6,-0.44243 -9.8,-1.10608c-1.5,-0.36869 -2.9,-0.88486 -4.2,-1.54851c-0.7,-0.36869 -1.4,-0.81112 -2.2,-1.25355c-0.7,-0.44243 -2.1,-1.76972 -3.1,-1.69598c-0.1,-0.14748 -0.5,-0.36869 -0.1,-0.36869zM224.50491,96.70506c1.3,-2.50711 2.8,-5.08795 4,-7.66879c1.1,-2.58084 0.7,-5.45664 1.7,-8.11122c0.1,-0.14748 0.6,-0.07374 0.5,0.07374c-0.9,2.58084 -0.7,5.30916 -1.6,7.96375c-0.4,1.25355 -1.3,2.50711 -1.9,3.68692c-0.7,1.40103 -1.4,2.72832 -2.1,4.12935c-0.1,0.22122 -0.6,0.07374 -0.6,-0.07374zM238.10491,65.36625c-1.7,-0.36869 -3.6,-0.51617 -5.3,0.07374c-0.2,0.07374 -0.7,-0.14748 -0.4,-0.22122c1.8,-0.66365 3.9,-0.51617 5.8,-0.14748c0.3,0.14748 0.3,0.36869 -0.1,0.29495zM257.10491,79.96645c0,0 -0.8,0 -1.1,-0.73738c-0.3,-0.66365 -0.5,-1.62224 -0.3,-2.58084c0.7,-1.9172 3.3,-2.80206 3.2,-2.80206c0.1,0 -2.6,0.81112 -3.4,2.72832c-0.3,0.9586 -0.2,1.99094 0.1,2.72832c0.3,0.81112 1.4,0.9586 1.4,0.9586c0.4,0 0.7,-0.14748 0.6,-0.22122c0.1,-0.07374 -0.2,-0.07374 -0.5,-0.07374zM224.30491,101.05563c-0.4,-0.81112 -1.2,-1.62224 -1.6,-2.43337c-0.5,-0.9586 1.1,-1.54851 2,-1.99094c0.7,-0.66365 0.7,0.07374 0.5,0.14748c-1,0.51617 -2.4,0.9586 -1.9,1.99094c0.4,0.81112 1.1,1.47477 1.5,2.28589c0.1,0.14748 -0.5,0.14748 -0.5,0zM224.70491,96.63133c-0.1,0.22122 1.5,1.62224 1.4,1.62224c0.1,0 -1,-1.69598 -0.8,-1.69598c0,-0.07374 -0.2,-0.07374 -0.3,-0.07374c-0.1,0 -0.3,0.07374 -0.3,0.14748zM238.40491,65.29251c-0.9,1.10608 -1.2,1.9172 -1.1,3.24449c0.1,1.17981 0.6,2.43337 1.8,3.31823c1.8,1.40103 5,0.81112 7.1,0.14748c1.6,-0.51617 3.1,-1.32729 4.5,-2.06467c0.1,-0.07374 0.5,0.07374 0.3,0.14748c-2.9,1.62224 -7.6,3.90813 -11.4,2.28589c-1.5,-0.66365 -2.2,-1.76972 -2.6,-3.02327c-0.5,-1.54851 -0.2,-2.80206 0.9,-4.20309c0.2,-0.07374 0.6,0.07374 0.5,0.14748zM225.20491,72.66635c-0.1,-0.14748 0.4,-0.14748 0.5,0c0.5,0.73738 1,1.54851 1.6,2.28589c0.6,0.73738 1.3,1.84346 2.5,2.13841c-0.1,0.22122 0,0.22122 -0.2,0.14748c-1,-0.29495 -1.7,-1.03234 -2.3,-1.69598zM234.50491,65.14504c-1.4,0.14748 -2.8,0.44243 -3.7,1.25355c-0.8,0.66365 -1.1,1.54851 -1.6,2.35963c-0.4,0.73738 -1,1.32729 -1.6,1.9172c-0.7,0.66365 -2.2,1.32729 -1.8,2.28589c0.1,0.14748 -0.5,0.07374 -0.5,-0.07374c-0.3,-0.73738 0.5,-1.25355 1.1,-1.76972c1.1,-0.81112 1.9,-1.69598 2.5,-2.80206c0.5,-0.81112 0.9,-1.62224 1.7,-2.28589c0.8,-0.73738 2.5,-0.9586 3.7,-1.10608c0.1,-0.07374 0.6,0.14748 0.2,0.22122zM257.90491,81.29374v0c0.2,-0.07374 0.7,0 0.5,0.14748c-0.4,0.44243 -0.8,0.73738 -1.2,1.17981c-0.8,0.81112 -1.3,1.9172 -1.9,2.80206c-1.2,1.9172 -2.1,3.76066 -2.3,5.89907c-0.1,1.10608 0.1,2.21215 0.5,3.24449c0.2,0.51617 0.5,1.03234 0.8,1.47477c0.3,0.36869 0.8,0.58991 1,0.9586c0.2,0.36869 0.3,0.58991 0.2,1.03234c-0.2,0.58991 -0.6,0.88486 0.3,1.17981c0.1,0 0.3,0.14748 0.3,0.22122c0.2,0.66365 -0.4,1.03234 0.5,1.62224c0.2,0.14748 -0.3,0.14748 -0.4,0.07374c-0.3,-0.22122 -0.5,-0.36869 -0.7,-0.58991c-0.3,-0.44243 0.3,-1.03234 -0.4,-1.25355c-0.9,-0.22122 -0.5,-0.81112 -0.2,-1.25355c0.5,-0.81112 -1.2,-1.9172 -1.7,-2.65458c-0.6,-0.9586 -0.8,-2.13841 -0.8,-3.17075c-0.1,-2.35963 0.8,-4.35056 2.1,-6.48898c0.6,-1.03234 1.2,-2.06467 2,-3.02327c0.5,-0.58991 1,-0.9586 1.4,-1.40103c0.2,0 0.4,0.07374 0.5,0.14748v0c-0.1,0.07374 -0.6,-0.07374 -0.5,-0.14748zM231.00491,80.6301c0.1,-0.07374 0,-0.73738 -0.4,-1.47477c-0.4,-0.73738 -0.8,-1.69598 -0.5,-2.65458c0.7,-1.99094 2.9,-3.31823 2.6,-3.4657c0.3,0.14748 -2.1,1.40103 -2.9,3.39197c-0.4,1.03234 -0.1,2.13841 0.3,2.8758c0.3,0.73738 0.4,1.25355 0.3,1.25355c0,0.22122 0,0.51617 0.2,0.51617c0.1,0 0.3,-0.07374 0.4,-0.44243zM241.40491,64.85008c-1.4,0.44243 -3.2,0.51617 -4.7,0.22122c-0.3,-0.07374 -0.2,-0.36869 0.1,-0.29495c1.4,0.22122 3,0.22122 4.3,-0.22122c0.2,0 0.6,0.22122 0.3,0.29495zM263.70491,67.06223c1.6,0.51617 2.1,2.13841 2.8,3.17075c1.1,1.69598 2.1,3.39197 3.3,5.08795c0.1,0.07374 -0.5,0.07374 -0.5,-0.07374c-0.9,-1.32729 -1.8,-2.65458 -2.6,-4.05561c-0.4,-0.73738 -0.9,-1.40103 -1.3,-2.06467c-0.4,-0.58991 -0.8,-1.69598 -1.8,-1.9172c-0.5,-0.14748 -0.1,-0.22122 0.1,-0.14748zM269.80491,75.32093c-0.5,1.10608 -1.8,1.9172 -3,2.58084c-0.1,0.07374 -0.6,-0.07374 -0.5,-0.14748c1.2,-0.66365 2.4,-1.47477 2.9,-2.58084c0.1,0 0.6,0.07374 0.6,0.14748zM257.80491,78.27047c-0.1,-0.14748 2,-1.47477 4.7,-2.06467c2.6,-0.73738 5.3,-0.44243 5.3,-0.44243c0,-0.07374 -2.7,-0.44243 -5.4,0.22122c-2.7,0.51617 -5,1.76972 -5.1,2.06467c-0.2,0.29495 0,0.51617 0.2,0.51617c-0.2,-0.14748 0.1,-0.07374 0.3,-0.29495z" fill="#1d241c" fill-rule="nonzero" stroke="none"/><path d="M243.50491,61.60559c-0.7,0.14748 -1.5,0.22122 -2.3,0.22122c-0.2,0 -0.6,-0.22122 -0.2,-0.22122c0.7,0 1.4,-0.07374 2.1,-0.22122c0.3,0 0.7,0.14748 0.4,0.22122zM241.30491,62.12176c0.1,0.07374 0.5,1.32729 0,2.58084c-0.4,1.25355 -1.1,2.43337 -1.1,2.43337c0,0 0.8,-1.10608 1.4,-2.35963c0.7,-1.25355 0.5,-2.65458 0.3,-2.72832c-0.1,-0.14748 -0.3,-0.29495 -0.4,-0.22122c-0.2,-0.07374 -0.2,0.14748 -0.2,0.29495zM250.50491,59.39344c-0.1,1.69598 0.3,3.17075 1.3,4.71926c0.1,0.22122 -0.4,0.14748 -0.5,0c-1,-1.54851 -1.4,-3.02327 -1.3,-4.793c0,-0.14748 0.5,-0.07374 0.5,0.07374zM233.60491,48.77511c-0.8,1.03234 -1.7,1.99094 -2.1,3.09701c-0.6,1.47477 0.2,3.02327 1.2,4.27683c0.9,1.17981 2.3,2.21215 3.6,3.17075c1.3,0.9586 3.1,2.06467 4.9,2.35963c0.3,0.07374 0.3,0.22122 -0.1,0.22122c-3.4,-0.58991 -6.5,-3.17075 -8.5,-5.16169c-1,-1.03234 -1.9,-2.35963 -1.9,-3.61318c0,-1.69598 1.2,-3.02327 2.3,-4.4243c0.1,-0.14748 0.7,-0.07374 0.6,0.07374zM255.90491,56.22269c-1.5,1.69598 -4.3,2.72832 -6.6,3.61318c-2.4,0.88486 -5.3,1.99094 -8,1.99094c-0.2,0 -0.6,-0.22122 -0.2,-0.22122c2.8,-0.07374 5.7,-1.17981 8.2,-2.06467c2.2,-0.81112 4.8,-1.9172 6.2,-3.4657c0,-0.14748 0.5,0 0.4,0.14748zM242.20491,54.60045c0,-0.07374 -1,-0.14748 -1,-0.14748c0,0 0.8,0.29495 0.8,0.36869c0,0 0.1,0 0.1,-0.07374c0.1,-0.07374 0.2,-0.14748 0.1,-0.14748zM237.90491,54.01054c0,0.07374 0.6,0.81112 1.5,0.81112c0.9,0 1.6,-0.29495 1.6,-0.29495c0,-0.07374 -0.8,0.14748 -1.6,0.07374c-0.8,-0.07374 -1,-0.73738 -1,-0.66365c0,-0.07374 -0.2,-0.07374 -0.3,-0.07374c-0.1,-0.07374 -0.2,0 -0.2,0.14748zM238.50491,53.19942c1,-0.22122 2,0 3,0.29495c0.2,0.07374 0,0.14748 -0.1,0.07374c-0.9,-0.29495 -1.8,-0.44243 -2.7,-0.29495c-0.2,0.07374 -0.4,0 -0.2,-0.07374zM255.50491,55.04288c0.1,1.10608 0.9,1.32729 2.2,1.03234c0.8,-0.22122 1.6,-0.51617 2.3,-0.88486c0.7,-0.36869 1.1,-0.9586 1.3,-1.54851c0.3,-0.81112 0.1,-2.72832 -1.8,-2.28589c-0.1,0 -0.6,-0.14748 -0.4,-0.14748c0.9,-0.22122 2.1,-0.14748 2.5,0.58991c0.7,1.17981 0.3,2.50711 -0.9,3.39197c-1.5,1.17981 -5.7,2.21215 -5.9,-0.22122c0.2,-0.14748 0.7,-0.07374 0.7,0.07374zM259.30491,54.74792c0,0.07374 -1,0.58991 -2.1,0.14748c-0.5,-0.14748 -1.1,-0.36869 -1.5,-0.29495c-0.4,0.14748 -0.2,0.44243 -0.3,0.44243c0.1,0 -0.1,-0.29495 0.3,-0.44243c0.4,-0.07374 1,0.14748 1.5,0.36869c1.1,0.51617 2.4,0 2.4,-0.07374c0.1,-0.07374 0.2,-0.22122 0.1,-0.22122c-0.2,-0.07374 -0.4,0 -0.4,0.07374zM256.90491,53.27316c0.1,0.07374 1.1,-0.73738 2.3,-0.9586c0.6,-0.07374 1.3,0.07374 1.5,0.36869c0.3,0.29495 0.1,0.58991 0.1,0.51617c0,0 0.2,-0.22122 -0.1,-0.58991c-0.3,-0.29495 -0.9,-0.51617 -1.6,-0.44243c-1.3,0.29495 -2.3,0.9586 -2.4,0.88486c-0.1,0.07374 -0.2,0.14748 -0.2,0.22122c0.1,0.07374 0.3,0.07374 0.4,0zM233.00491,48.70138c0,-3.02327 -0.2,-6.85767 4.2,-8.33244c0.2,-0.07374 0.6,0.14748 0.3,0.29495c-4.3,1.32729 -3.9,5.16169 -4,8.03748c0.1,0.22122 -0.5,0.22122 -0.5,0zM241.00491,65.43999c-1.1,0.14748 -1.9,0.36869 -3,0.07374c-0.4,-0.07374 0,-0.14748 0.2,-0.07374c0.8,0.22122 1.6,0 2.4,-0.14748c0.1,0 0.6,0.14748 0.4,0.14748z" fill="#1d241c" fill-rule="nonzero" stroke="none"/><path d="M242.00491,58.06615c0,0.07374 -0.9,0.29495 -1.9,0.14748c-1,-0.07374 -1.7,-0.66365 -1.6,-0.66365c-0.1,0.07374 0.5,0.66365 1.5,0.81112c1,0.22122 2,0.07374 2.1,-0.07374c0.1,-0.07374 0.2,-0.14748 0.1,-0.14748c0,-0.14748 -0.1,-0.14748 -0.2,-0.07374zM237.30491,56.51764c2.4,0.9586 4.8,0.88486 7.4,0.51617c0.1,0 0.6,0.14748 0.3,0.22122c-2.8,0.36869 -5.4,0.36869 -8,-0.66365c-0.4,-0.14748 0.1,-0.14748 0.3,-0.07374z" fill="#1d241c" fill-rule="nonzero" stroke="none"/><path d="M244.80491,50.76605c1.2,-2.21215 5.4,-1.99094 7.9,-1.47477l0.3,0.07374c-0.3,1.32729 -1.8,2.80206 -3.8,2.65458c-1.6,-0.07374 -3.2,-0.51617 -4.4,-1.25355c-0.1,0 0.4,0 0.5,0.07374c1.5,0.81112 3.5,1.40103 5.2,0.66365c1.1,-0.44243 1.7,-1.32729 1.9,-2.21215c0.1,0.07374 0.2,0.07374 0.3,0.14748c-2.4,-0.44243 -6.2,-0.51617 -7.3,1.47477c-0.1,0.07374 -0.7,-0.07374 -0.6,-0.14748zM238.60491,50.4711c-0.4,-1.54851 -2.4,-2.28589 -4.4,-2.28589c-0.3,0 -0.6,0.07374 -0.9,0.14748c-0.5,0.22122 0.5,1.54851 0.6,1.69598c1,1.25355 3.3,0.9586 4.7,0.44243c0.2,-0.07374 0.5,0 0.4,0.07374c-1.3,0.51617 -3.1,0.73738 -4.4,0.22122c-0.8,-0.29495 -2.6,-2.21215 -1.3,-2.65458c2.3,-0.73738 5.4,0.66365 5.8,2.35963c-0.1,0.14748 -0.5,0.14748 -0.5,0zM250.40491,49.07007c1.4,-0.29495 2.4,1.10608 1.5,1.84346c-0.1,0.07374 -0.4,-0.07374 -0.4,-0.07374c0.4,-0.51617 0.7,-0.88486 0.7,-1.47477c0.1,0 0.3,0.07374 0.4,0.07374c-0.1,0.22122 -0.1,0.44243 -0.1,0.58991c0,0.07374 -0.4,0 -0.4,-0.07374c0,-0.22122 -0.1,-0.44243 -0.3,-0.66365c0.1,0 0.3,0 0.4,0c0.1,0.14748 0.2,0.22122 0.4,0.36869c-0.1,0 -0.2,0 -0.4,0c-0.1,-0.22122 -0.3,-0.36869 -0.6,-0.44243c0.1,0 0.2,0 0.3,0c0.2,0.07374 0.4,0.14748 0.7,0.14748l-0.1,0.07374c-0.1,-0.07374 -0.3,-0.07374 -0.4,-0.14748l0.1,-0.07374c0.1,0.07374 0.2,0.07374 0.3,0.14748c0.2,0.07374 -0.2,0.07374 -0.3,0c-0.1,0 -0.2,-0.07374 -0.2,-0.07374c-0.2,-0.07374 0,-0.07374 0.1,-0.07374c0.3,0.07374 0.5,0.14748 0.7,0.29495c0.1,0.07374 -0.1,0.07374 -0.1,0.07374c-0.4,0 -0.8,-0.07374 -1.1,-0.29495c-0.2,-0.07374 0.2,-0.07374 0.3,0c0.3,0.07374 0.7,0.22122 0.7,0.51617c0,0.07374 -0.3,0 -0.4,0c-0.2,-0.14748 -0.4,-0.22122 -0.5,-0.44243c0,-0.07374 0.3,0 0.4,0c0.3,0.22122 0.4,0.44243 0.3,0.66365c-0.1,0 -0.3,-0.07374 -0.4,-0.07374c0,-0.22122 0,-0.44243 0.1,-0.58991c0,-0.07374 0.4,0 0.4,0.07374c0.1,0.58991 -0.3,1.03234 -0.7,1.47477c-0.1,0 -0.3,-0.07374 -0.4,-0.07374c0.5,-0.44243 0.3,-1.84346 -0.8,-1.62224c0.1,0 -0.3,-0.14748 -0.2,-0.14748zM235.00491,48.25895c-0.6,-0.07374 -1.1,0.14748 -1.5,0.44243c-0.1,-0.07374 -0.2,-0.07374 -0.4,-0.14748c0.4,-0.22122 0.8,-0.36869 1.4,-0.44243c0.1,0.07374 0.1,0.14748 0.2,0.14748c-0.5,0 -0.8,0.22122 -1.1,0.44243c-0.1,-0.07374 -0.2,-0.07374 -0.4,-0.14748l0.1,-0.07374c0.1,-0.07374 0.5,0.07374 0.4,0.14748c-0.3,0.29495 -0.3,0.58991 -0.3,0.88486c0,0.07374 -0.4,0 -0.4,-0.07374c-0.1,-0.22122 -0.1,-0.44243 0,-0.73738c0,-0.07374 0.5,0 0.4,0.07374c-0.1,0.22122 0,0.44243 0,0.66365c-0.1,0 -0.3,-0.07374 -0.4,-0.07374c0,-0.36869 0,-0.66365 0.3,-0.9586c0.1,0.07374 0.2,0.07374 0.4,0.14748l-0.1,0.07374c-0.1,0.07374 -0.5,-0.07374 -0.4,-0.14748c0.4,-0.29495 0.8,-0.44243 1.3,-0.44243c0.1,0 0.4,0.14748 0.2,0.14748c-0.5,0.07374 -0.9,0.22122 -1.3,0.44243c-0.1,0.07374 -0.5,-0.07374 -0.4,-0.14748c0.6,-0.36869 1.2,-0.58991 1.9,-0.44243c0.4,0.07374 0.4,0.22122 0.1,0.22122z" fill="#1d241c" fill-rule="nonzero" stroke="none"/><path d="M250.40491,50.32362c0,0.51617 -0.6,0.9586 -1.3,0.9586c-0.7,0 -1.3,-0.44243 -1.3,-0.9586c0,-0.51617 0.6,-0.9586 1.3,-0.9586c0.7,0 1.3,0.36869 1.3,0.9586zM236.70491,49.58624c0,0.44243 -0.5,0.81112 -1.1,0.81112c-0.6,0 -1.1,-0.36869 -1.1,-0.81112c0,-0.44243 0.5,-0.81112 1.1,-0.81112c0.6,0 1.1,0.36869 1.1,0.81112z" fill="#1d241c" fill-rule="nonzero" stroke="none"/><path d="M253.00491,47.89025c-1.7,-1.32729 -5.4,-1.62224 -7.4,-0.44243c-0.1,0.07374 -0.6,-0.07374 -0.5,-0.14748c2.3,-1.32729 6.5,-0.88486 8.4,0.58991c0.2,0.14748 -0.4,0.07374 -0.5,0zM233.30491,46.71044c1.6,-0.81112 4,-0.73738 5.3,0.36869c0.2,0.22122 -0.3,0.22122 -0.5,0.07374c-1,-1.03234 -3.1,-0.9586 -4.4,-0.29495c-0.1,0.14748 -0.6,0 -0.4,-0.14748z" fill="#1d241c" fill-rule="nonzero" stroke="none"/><path d="M270.60491,59.24596c0.3,1.03234 0.9,1.9172 0.8,3.02327c0,0.88486 -0.5,1.76972 -1.1,2.50711c-0.9,1.25355 -2.6,2.8758 -4.5,3.39197c-0.1,0 -0.5,-0.07374 -0.3,-0.14748c1.7,-0.66365 1.9,-2.58084 0.6,-3.4657c0.1,0 0.2,0 0.4,0c-0.3,2.06467 -2.9,3.24449 -5.2,4.20309c-3.2,1.32729 -6,2.58084 -8,4.86673c-0.1,0.07374 -0.4,0 -0.4,-0.07374c0,-0.9586 -1.2,-1.69598 -1.8,-2.50711c-0.5,-0.73738 -0.8,-1.76972 -0.6,-2.58084c0.3,-1.76972 2,-3.17075 4.1,-3.98187c0.1,0.07374 0.2,0.14748 0.3,0.14748c-1.1,0.29495 -2.2,0.44243 -3.2,0.81112c-0.8,0.29495 -2,0.73738 -2.6,1.25355c-0.1,0.07374 -0.5,0 -0.4,-0.07374c0.5,-1.03234 1.6,-1.54851 2.6,-2.35963c0.5,-0.36869 0.8,-0.81112 1.2,-1.25355c0,0 1.3,-1.69598 0.6,-1.62224c-0.2,0 -0.4,-0.14748 -0.1,-0.22122c1.3,-0.14748 0.6,1.03234 0.3,1.47477c-0.4,0.58991 -1,1.17981 -1.6,1.69598c-0.9,0.81112 -2,1.32729 -2.5,2.28589c-0.1,0 -0.3,-0.07374 -0.4,-0.07374c0.7,-0.58991 1.8,-0.88486 2.6,-1.32729c1,-0.44243 2.2,-0.58991 3.3,-0.81112c0.1,0 0.5,0.07374 0.3,0.14748c-2.3,0.88486 -4.1,2.50711 -4,4.49804c0.1,1.03234 0.6,2.06467 1.4,2.8758c0.5,0.51617 0.9,0.9586 1,1.62224c-0.1,0 -0.3,-0.07374 -0.4,-0.07374c1.7,-1.99094 4.1,-3.39197 6.9,-4.49804c2.5,-1.03234 5.9,-2.21215 6.3,-4.57178c0,-0.14748 0.3,-0.07374 0.4,0c1.4,1.03234 1.3,3.02327 -0.6,3.76066c-0.1,-0.07374 -0.2,-0.14748 -0.3,-0.14748c1.8,-0.51617 3.4,-2.13841 4.3,-3.39197c0.7,-0.81112 1,-1.76972 1.1,-2.72832c0,-0.88486 -0.6,-1.76972 -0.8,-2.65458c-0.2,-0.14748 0.2,-0.07374 0.3,0zM255.30491,40.95885c-0.2,0.36869 -0.3,0.73738 -0.3,1.10608c-0.1,0.58991 0.6,0.9586 1,1.40103c0.9,1.03234 1.6,2.13841 1.9,3.31823c0.6,2.21215 -0.4,4.64552 -3,5.97281c-0.1,-0.07374 -0.2,-0.07374 -0.3,-0.14748c1.8,-0.14748 3.8,-0.58991 4.9,-1.84346c0.1,-0.07374 0.5,0 0.4,0.07374c-1.1,1.25355 -3.1,1.69598 -5,1.84346c0,0 -0.4,-0.07374 -0.3,-0.14748c2.8,-1.47477 3.5,-4.20309 2.7,-6.56272c-0.4,-1.17981 -1.3,-2.35963 -2.3,-3.24449c-0.7,-0.58991 -0.5,-1.32729 -0.1,-1.99094c0,0.07374 0.4,0.14748 0.4,0.22122zM237.10491,40.44268c2.5,-0.73738 5.7,0 8.2,0.36869c1.7,0.29495 3.5,0.58991 5.2,0.73738c1.5,0.14748 3.3,0.14748 4.3,-0.73738c0.1,-0.07374 0.6,0.07374 0.5,0.14748c-1.7,1.47477 -5.3,0.73738 -7.4,0.44243c-1.8,-0.29495 -3.6,-0.58991 -5.4,-0.88486c-1.6,-0.22122 -3.4,-0.44243 -4.9,0.07374c-0.2,0.07374 -0.7,-0.07374 -0.5,-0.14748zM264.00491,36.97697c-1.2,-0.51617 -2,-1.03234 -3.5,-1.17981c-0.1,0 -0.3,-0.07374 -0.3,-0.14748c-0.3,-1.17981 -1.5,-1.54851 -3,-1.84346c-1.3,-0.29495 -2.6,-0.58991 -3.9,-0.81112c-3.1,-0.44243 -6.3,-0.51617 -9.4,-0.14748c-5.1,0.51617 -9.7,2.50711 -12.4,5.75159c-2.7,3.09701 -3.7,7.00515 -3.6,10.61833c0.1,2.65458 0.8,6.26776 3.9,8.03748c0.3,0.14748 -0.2,0.29495 -0.4,0.14748c-3.6,-2.06467 -4.1,-6.26776 -4.1,-9.29104c0.1,-4.4243 2,-9.2173 6.5,-12.31431c4.5,-3.09701 11.1,-3.76066 17,-3.31823c1.8,0.14748 3.6,0.44243 5.4,0.81112c1.1,0.29495 2.2,0.44243 3.2,0.88486c0.9,0.36869 0.9,1.25355 1.8,1.40103c1.1,0.22122 2,0.73738 3,1.17981c0.5,0.14748 0,0.29495 -0.2,0.22122zM270.10491,59.24596c-0.9,-2.13841 -2.3,-4.12935 -2.9,-6.26776c-0.3,-1.03234 -0.3,-2.13841 -0.4,-3.24449c-0.1,-0.81112 -0.3,-1.69598 -0.3,-2.50711c-0.4,-3.61318 1.4,-7.52132 -2.5,-10.39711c-0.1,-0.07374 0.4,-0.07374 0.5,0c3.6,2.65458 2.4,6.12029 2.5,9.51225c0,1.03234 0.2,2.06467 0.4,3.09701c0.2,1.03234 0.2,2.13841 0.4,3.17075c0.4,2.28589 2,4.4243 3,6.63645c-0.1,0.14748 -0.7,0.07374 -0.7,0zM231.90491,57.25503c0.1,1.40103 -0.1,2.72832 -1,4.05561c-0.5,0.73738 -1,1.40103 -1.5,2.13841c-0.6,1.03234 -0.4,1.76972 0.4,2.72832c-0.1,0 -0.3,0 -0.4,0c0.2,-1.10608 1,-1.76972 2.1,-2.50711c0.1,-0.07374 0.4,0 0.3,0.14748c-0.6,0.73738 -0.2,1.25355 0.3,1.84346c0.1,0.14748 -0.3,0.14748 -0.4,0c-0.6,-0.73738 -0.8,-1.25355 -0.3,-1.99094c0.1,0.07374 0.2,0.07374 0.3,0.14748c-1,0.66365 -1.8,1.32729 -2,2.35963c0,0.14748 -0.3,0.07374 -0.4,0c-1.1,-1.32729 -0.8,-2.35963 0.1,-3.68692c1.2,-1.76972 2.1,-3.17075 1.9,-5.23543c0.2,-0.22122 0.6,-0.14748 0.6,0z" fill="#1d241c" fill-rule="nonzero" stroke="none"/><path d="M250.20491,49.73371c0.3,0.14748 0.4,0.44243 0.4,0.66365c0,0.29495 -0.2,0.44243 -0.4,0.66365c-0.2,0.22122 -0.5,0.29495 -0.9,0.29495c-0.4,0 -0.6,-0.14748 -0.9,-0.29495c-0.3,-0.14748 -0.4,-0.44243 -0.4,-0.66365c0,-0.29495 0.2,-0.51617 0.4,-0.66365c0.2,-0.22122 0.6,-0.29495 0.9,-0.29495c0.3,0 0.6,0.07374 0.9,0.29495z" fill="#4c2c03" fill-rule="evenodd" stroke="#000000"/><path d="M236.90491,49.14381c0.3,0.22122 0.4,0.36869 0.4,0.66365c0,0.29495 -0.1,0.44243 -0.4,0.66365c-0.3,0.22122 -0.5,0.29495 -0.9,0.29495c-0.4,0 -0.6,-0.07374 -0.9,-0.29495c-0.3,-0.22122 -0.4,-0.36869 -0.4,-0.66365c0,-0.29495 0.2,-0.51617 0.4,-0.66365c0.3,-0.22122 0.6,-0.29495 0.9,-0.29495c0.3,0 0.6,0.07374 0.9,0.29495z" fill="#4c2c03" fill-rule="evenodd" stroke="#000000"/></g></g></g></svg>