<svg version="1.1" xmlns="http://www.w3.org/2000/svg" xmlns:xlink="http://www.w3.org/1999/xlink" width="117.83728" height="81.02268" viewBox="0,0,117.83728,81.02268"><g transform="translate(-177.3548,-98.955)"><g data-paper-data="{&quot;isPaintingLayer&quot;:true}" fill-rule="nonzero" stroke="none" stroke-width="1" stroke-linecap="butt" stroke-linejoin="miter" stroke-miterlimit="10" stroke-dasharray="" stroke-dashoffset="0" style="mix-blend-mode: normal"><g data-paper-data="{&quot;index&quot;:null}"><path d="M204.66891,156.08338c5.1114,4.6627 6.2296,8.2 7.1879,9.7274c1.5974,2.4922 6.549,3.8589 7.188,8.3608c0.4792,3.2157 -6.2296,1.2863 -8.7054,-3.3765c-3.1148,-5.949 -3.8336,-6.0294 -7.2678,-6.9941c-3.5141,-0.9647 0.1597,-9.0039 1.5973,-7.7176z" fill="#c9b59b"/><path d="M226.55209,158.65588c-1.4375,3.0549 -3.0349,5.8687 -4.153,7.0745c-4.7121,5.1451 -9.4241,7.1549 -10.9416,8.1196c-2.5557,1.6079 -4.3127,2.0098 -8.7852,2.0098c-4.4725,0 2.0765,-4.6627 5.0315,-7.396c5.2712,-4.7432 7.1879,-9.0843 8.0665,-12.702c0.8785,-3.2157 13.9765,-4.0196 10.7818,2.8941z" fill="#dbccb6"/><path d="M247.71661,161.14808c1.5174,1.1255 9.2644,-0.3216 10.8617,0.3216c1.7571,0.7235 2.8752,3.4568 4.0732,4.8235c1.9966,2.1706 6.4691,6.0294 7.2678,10.451c0.7986,4.4215 -6.2296,0.1607 -9.0249,-2.7334c-2.4758,-2.5725 -8.7053,-1.2862 -8.7053,-1.2862c-6.9484,-2.4118 -4.3927,-11.6569 -4.4725,-11.5765z" fill="#c9b59b"/><path d="M274.23201,161.95198c0,0 -6.8684,10.6922 -7.9067,12.1392c-1.1181,1.5275 -1.8369,1.5275 -3.4342,2.4118c-2.6356,1.447 -4.5524,3.698 -9.0249,3.4568c-4.4724,-0.2411 1.2779,-4.2607 3.6739,-7.4764c2.5557,-3.3765 4.4724,-5.8686 3.5939,-9.0039c0,0 5.7504,-7.5569 13.098,-1.5275z" fill="#dbccb6"/></g><path d="M195.96353,165.56963c3.91343,-3.77843 3.19463,-4.42157 -3.35436,-3.29608c-0.31946,-0.40196 -0.71879,-0.88432 -1.03825,-1.36667c0.55906,-0.32157 3.99329,-5.46667 7.02819,-8.92353c-0.95838,-2.49216 -1.43758,-5.06471 -1.43758,-7.79804c0,-16.64118 18.92819,-30.14706 42.32886,-30.14706c23.40067,0 42.32886,13.50588 42.32886,30.14706c0,15.75686 -17.09128,28.7 -38.81477,29.98627c0.2396,0.24117 0.39933,0.56274 0.55906,0.80392c-0.39933,0.56275 -0.79866,1.68824 -1.11812,3.21569c-0.07987,0 -0.15973,0 -0.2396,0c-0.39933,0 -0.79866,0 -1.27785,0c-1.11812,-4.58235 -2.15637,-4.58235 -3.51409,-0.16078c-0.47919,0 -0.87852,-0.08039 -1.27785,-0.08039c-0.55906,-4.90392 -1.67719,-4.98432 -3.67383,-0.32157c-0.31946,0 -0.63893,-0.08039 -0.95839,-0.08039c0.07986,-1.76863 0.55906,-4.66275 -0.95839,-4.66275c-1.59731,0 -1.59731,2.65294 -2.39597,4.26078c-0.15973,0 -0.47919,-0.08039 -0.47919,-0.08039c0,0 0.47919,-4.18039 -1.19799,-4.18039c-1.67719,0 -2.15638,3.61765 -2.15638,3.61765l-0.63893,-0.08039c0,0 1.03825,-3.85882 -0.39933,-4.42157c-1.43758,-0.56275 -3.0349,3.77843 -3.0349,3.77843c0,0 -0.4792,-0.08039 -0.63893,-0.16078c2.31611,-5.70784 -0.31946,-7.23529 -3.59396,-0.88431c-0.39933,-0.08039 -0.71879,-0.16079 -1.11812,-0.32157c1.99665,-5.46666 -0.31946,-7.79804 -4.47248,-2.33137c-0.39933,-0.16078 -0.79866,-0.24118 -1.19799,-0.40196c2.95504,-3.13529 -1.51745,-5.86863 -5.03154,-1.20588c-0.39933,-0.16079 -0.2396,-0.0804 -0.63893,-0.24118c2.63558,-3.37647 -1.11812,-5.1451 -3.11476,-1.76863c-0.71879,-0.40196 0,0 -0.71879,-0.40196c2.71543,-2.89412 0.95839,-5.78824 -3.0349,-2.17059l-0.71879,-0.32157z" data-paper-data="{&quot;index&quot;:null}" fill="#dbccb6"/><g data-paper-data="{&quot;index&quot;:null}" fill="#3e5360"><path d="M186.97399,141.0001c0,-0.3216 -0.0798,-0.7236 -0.0798,-1.0451c7.9865,-1.9295 7.0281,-2.4118 -0.4792,-3.8589c0,-0.4019 0.0798,-0.8039 0.0798,-1.2059c5.1913,-0.4823 8.0665,-0.8843 0.3195,-2.5725c0,-0.1608 0.0799,-0.402 0.0799,-0.5627c9.504,-0.3216 9.504,-1.4471 1.1181,-4.2608c0.1597,-0.402 0.2396,-0.7236 0.3993,-1.1255c7.747,0.0804 8.6255,-1.5275 2.4758,-4.9843c0.3195,-0.4824 0.5591,-0.9647 0.8786,-1.4471c7.9067,1.0451 8.3859,0.9647 2.4758,-3.2961c0.1597,-0.2411 0.3993,-0.4823 0.6389,-0.7235c7.9866,2.7333 8.7853,2.1706 2.1564,-2.251c0.0799,-0.0804 0.2396,-0.2412 0.3993,-0.3216c6.4692,2.8138 7.6671,1.3667 3.4343,-2.8941c0.3194,-0.2411 0.6389,-0.4823 0.9584,-0.7235c5.5107,3.1353 6.3093,3.1353 1.757,-1.2059c0.0799,-0.0804 0.2396,-0.1608 0.3195,-0.2412c5.6704,3.8589 6.7087,2.7334 3.1147,-1.9294c0.3994,-0.2411 0.7987,-0.4823 1.2779,-0.6431c6.0698,3.7784 9.504,3.3765 4.9517,-2.251c0.2396,-0.0804 0.3993,-0.1608 0.6389,-0.2412c4.4725,3.6981 6.3094,4.1804 4.4725,-1.5274c0.3993,-0.1608 0.8785,-0.2412 1.2778,-0.402c3.8336,4.9843 4.4725,4.3412 2.8752,-0.7235c0.2396,-0.0804 0.559,-0.0804 0.7986,-0.1608c3.6739,5.8686 4.3128,5.949 2.6356,-0.4823c0.1597,0 0.3993,-0.0804 0.5591,-0.0804c4.4725,6.6725 5.9899,5.7078 6.549,-0.7236c0.3194,0 0.6389,0 0.9584,-0.0804c1.8369,6.5922 2.3161,6.753 1.9167,-0.0803c0.0799,0 0.2396,0 0.3195,0c2.396,7.6372 3.7537,7.2352 5.0315,0.0803c0.1598,0 0.3994,0 0.5591,0c1.198,7.7177 2.1564,8.2 4.3128,0.402c0.1597,0 0.2396,0 0.3993,0.0804c1.198,7.2353 1.9168,6.6725 5.6705,1.0451c0.4791,0.0804 1.0382,0.2412 1.5174,0.402c-0.2396,6.1902 -0.5591,5.949 3.5141,1.0451c0.5591,0.1607 1.0383,0.3215 1.5973,0.5627c-1.0382,4.4216 0.3195,5.1451 3.9134,1.5275c0.3994,0.1607 0.7987,0.3215 1.198,0.4823c-2.3161,5.6275 -1.757,6.1902 3.1947,1.5275c0.1597,0.0803 0.2396,0.1607 0.3993,0.1607c-4.153,6.351 -3.594,6.6726 2.0765,1.1255c0.0799,0.0804 0.1597,0.0804 0.2396,0.1608c-4.3926,5.8686 -3.8336,6.1902 1.9966,1.2059c0.1598,0.0804 0.2396,0.1608 0.3994,0.2412c-3.8336,4.7431 -3.1947,5.1451 2.3959,1.5274c0.3195,0.1608 0.5591,0.402 0.8786,0.6432c-3.3544,4.0196 -2.5557,4.7431 2.8751,2.1705c0.2396,0.2412 0.5591,0.402 0.7987,0.6432c-4.8718,4.5823 -3.9933,5.3863 3.1946,2.8941c0.1597,0.1608 0.3993,0.402 0.5591,0.5627c-5.7504,4.502 -4.8718,5.4667 3.2745,3.5373c0.2396,0.2412 0.3993,0.4824 0.6389,0.8039c-5.4309,3.3765 -4.6322,4.4216 2.7953,3.8588c0.2396,0.402 0.4792,0.804 0.7188,1.2059c-6.549,3.2157 -6.0698,4.5824 2.4758,4.9843c0.1598,0.3216 0.2396,0.5628 0.3195,0.8844c-7.5873,2.4117 -7.2678,2.6529 1.198,3.7784c0.0798,0.3216 0.1597,0.7235 0.2396,1.0451c-6.0698,0.5627 -5.99,1.0451 0.3993,2.1706c0.0799,0.4823 0.0799,0.9647 0.1597,1.447c-5.1114,0.8843 -5.1114,2.9745 -0.0798,5.3059c-0.0799,0.7235 -0.2396,1.3667 -0.3994,2.0902c-3.9932,0.0804 -4.2328,0.8039 -0.7187,2.4922c-0.2396,0.6431 -0.3994,1.2862 -0.7188,1.849c-3.8336,-0.2412 -4.1531,0.4823 -1.0383,2.3314c-0.2396,0.5627 -0.5591,1.0451 -0.8785,1.5274c-4.4725,-0.8039 -5.0316,0 -1.5973,2.4922c-0.3994,0.5627 -0.7987,1.1255 -1.2779,1.6882c-5.4309,-1.2059 -6.2295,-0.2412 -2.5557,2.9745c-0.3195,0.3216 -0.6389,0.6432 -0.9584,0.9647c-5.91,-2.4921 -6.6288,-1.7686 -2.4758,2.251c-0.3195,0.2412 -0.5591,0.4824 -0.8785,0.7235c-6.3094,-3.3764 -7.188,-2.6529 -3.1148,2.3314c-0.3195,0.2412 -0.6389,0.402 -0.8785,0.6431c-6.549,-4.1 -7.747,-3.4568 -4.2329,2.5726c-0.3195,0.1608 -0.6389,0.3216 -0.9584,0.4823c-5.5906,-4.5823 -6.549,-3.8588 -3.8336,1.7687c-0.2396,0.0804 -0.559,0.2411 -0.7986,0.3215c-4.792,-5.3058 -5.99,-4.5823 -3.2745,1.2059c-0.2396,0.0804 -0.4792,0.1608 -0.7188,0.2412c-5.351,-6.351 -5.1913,-6.6726 -3.5141,0.9647c-0.2396,0.0804 -0.3993,0.0804 -0.6389,0.1608c-4.7121,-7.2353 -5.7504,-7.0745 -4.2329,0.8039c-0.0799,0 -0.1597,0 -0.2396,0c-3.9933,-8.2804 -4.7121,-7.3157 -4.7121,0.402c-0.1597,0 -0.3993,0 -0.5591,0c-2.8751,-7.5569 -4.9516,-8.602 -5.9899,-0.2412c-0.0799,0 -0.2396,0 -0.3194,0c-1.6772,-7.3157 -2.8752,-7.2353 -5.0316,-0.8843c-0.3993,-0.0804 -0.7188,-0.1608 -1.1181,-0.2412c0,0 0.8785,-4.4216 -0.7188,-5.0647c-1.5973,-0.6431 -2.6356,3.1353 -3.6738,3.698c-0.2396,-0.0804 -0.4792,-0.1607 -0.7188,-0.2411c0.2396,-0.8844 1.0382,-2.8942 1.198,-3.6981c-0.1598,-1.6078 -1.8369,-0.9647 -4.3128,0.8843c-0.3195,-0.0804 -1.1181,-0.2411 -1.3577,-0.4019c3.3544,-4.2608 3.9933,-6.4314 -1.6772,-3.2961c-0.3993,-0.2412 -0.7188,-0.402 -1.1181,-0.6431c3.1946,-4.4216 1.9168,-5.2255 -4.6322,-2.9746c-0.3994,-0.2411 -0.3195,-0.2411 -0.7188,-0.4823c3.7537,-2.7333 2.955,-5.6275 -2.1564,-1.3667c-0.3993,-0.2411 -0.6389,-0.4823 -0.9584,-0.7235c5.4309,-3.9392 2.2363,-6.0294 -3.2745,-2.0902c-0.559,-0.402 -1.0382,-0.8039 -1.5174,-1.2059c4.4725,-3.2157 0.9584,-6.6725 -4.7121,-3.3764l-0.7987,-0.5628c4.0732,-2.3314 3.8336,-5.6274 0.0799,-4.502c-3.7537,1.1255 -4.4725,1.7687 -4.7919,1.7687c-0.4792,-0.6432 -0.8786,-1.2059 -1.2779,-1.849c4.4725,-2.0902 0.3993,-1.8491 -5.1114,-2.251c-0.1597,-0.402 -0.3195,-0.8039 -0.4792,-1.2059c6.0698,-0.9647 1.2779,-4.1 -5.1114,-3.6177c-0.0799,-0.1607 -0.0799,-0.3215 -0.1597,-0.4823c7.2677,-1.849 5.91,-3.2157 -2.4759,-3.698z"/><path d="M208.05859,157.0785c0,0.0804 -0.3993,-0.4824 0,0z"/></g><g data-paper-data="{&quot;index&quot;:null}"><path d="M185.10181,152.70688c2.955,-2.8941 3.2745,-5.2255 4.5524,-8.9235c0.2396,-0.5628 0.559,-1.5275 0.8785,-2.1706c0,0 -0.3993,-0.1608 1.5174,0.402c3.9135,1.2058 14.5356,-3.5373 17.5705,-1.8491c0.6389,0.402 0.7987,0.3216 1.1181,0.804c-2.0765,0.5627 -3.9134,0.8843 -3.9134,0.8843c0,0.2411 -0.1597,0.8039 -0.1597,0.8039c2.5557,0.8843 4.712,1.7686 5.0315,2.5725c0,0.2412 -0.0799,0.4824 -0.0799,0.6432c-0.9583,0.8843 -6.0698,0.3215 -6.0698,0.3215l-0.2396,0.804c0,0 5.1115,2.1706 4.0732,3.1353c-1.1181,1.0451 -3.5141,1.2058 -5.5906,1.7686c0.1597,0.1608 0.3195,0.9647 0.3195,0.9647c0,0 3.2745,-0.3216 4.6322,0.7235c-0.3994,0.7236 -0.7188,1.4471 -0.9584,2.0098c-2.6356,5.6275 -13.1779,8.4412 -26.5154,5.3059l-2.4759,-1.5274c0.0799,-4.7432 3.6738,-4.0197 6.3094,-6.6726z" fill="#dbccb6"/><path d="M195.78714,149.05386c-0.05567,-0.79197 0.54545,-1.47942 1.34264,-1.53546c0.79719,-0.05604 1.48858,0.54055 1.54425,1.33252c0.05567,0.79197 -0.54545,1.47942 -1.34264,1.53546c-0.79719,0.05604 -1.48858,-0.54055 -1.54425,-1.33252z" fill="#3e5360"/><g fill="#c6a87b" opacity="0.6"><path d="M195.32461,139.68338c1.3577,-1.5275 3.5141,-2.4922 5.5108,-1.7686c0.7986,0.2411 0.4792,1.5274 -0.3195,1.2862c-1.5973,-0.5627 -3.1946,0.2412 -4.2329,1.4471c-0.559,0.5627 -1.5174,-0.402 -0.9584,-0.9647z"/></g><path d="M182.38641,158.33438c0,0 -1.3577,2.4117 -2.7155,2.3313c-1.3577,-0.1608 -2.3161,-2.7333 -2.3161,-2.7333c0.1598,-1.3667 1.2779,-1.9294 2.7155,-1.7686c1.3577,0 2.4758,0.7235 2.3161,2.1706z" fill="#65746f"/><path d="M204.90851,140.72848c0.8785,-3.6981 3.594,-11.2549 10.8618,-6.8334c6.0698,3.7785 -7.8269,9.7275 -10.8618,6.8334z" fill="#dbccb6"/></g></g></g></svg>